<svg width="200" height="116" viewBox="0 0 200 116" fill="none" xmlns="http://www.w3.org/2000/svg">
<path d="M47.8442 108.002V107.25H50.9667V108.002L49.9935 108.168V111.148H54.2085V108.168L53.2354 108.002V107.25H56.3578V108.002L55.3847 108.168V114.963L56.3578 115.129V115.876H53.2354V115.129L54.2085 114.963V112.066H49.9935V114.963L50.9667 115.129V115.876H47.8442V115.129L48.8174 114.963V108.168L47.8442 108.002Z" fill="#999591"/>
<path d="M61.5639 115.876C61.5281 115.702 61.5002 115.546 61.4803 115.408C61.4604 115.269 61.4465 115.131 61.4385 114.993C61.2116 115.281 60.927 115.522 60.5848 115.716C60.2464 115.905 59.8842 116 59.4982 116C58.8255 116 58.3141 115.838 57.9638 115.514C57.6136 115.186 57.4384 114.726 57.4384 114.134C57.4384 113.526 57.6852 113.058 58.1787 112.73C58.6763 112.398 59.3569 112.232 60.2206 112.232H61.4325V111.486C61.4325 111.111 61.3131 110.814 61.0743 110.597C60.8355 110.376 60.5032 110.265 60.0773 110.265C59.7827 110.265 59.522 110.303 59.2952 110.378C59.0723 110.453 58.8912 110.556 58.7519 110.686L58.6265 111.361H57.719V110.117C58.0136 109.884 58.3698 109.699 58.7877 109.56C59.2056 109.418 59.6594 109.347 60.1489 109.347C60.8813 109.347 61.4743 109.533 61.9281 109.904C62.3818 110.275 62.6087 110.806 62.6087 111.498V114.584C62.6087 114.667 62.6087 114.748 62.6087 114.827C62.6126 114.906 62.6186 114.985 62.6266 115.064L63.1042 115.129V115.876H61.5639ZM59.6713 115.023C60.0614 115.023 60.4176 114.93 60.74 114.744C61.0624 114.558 61.2932 114.335 61.4325 114.075V113.02H60.1788C59.6972 113.02 59.3151 113.131 59.0325 113.352C58.7539 113.573 58.6146 113.842 58.6146 114.158C58.6146 114.438 58.7021 114.653 58.8773 114.803C59.0524 114.95 59.3171 115.023 59.6713 115.023Z" fill="#999591"/>
<path d="M64.0833 115.129L65.0565 114.963V110.384L64.0833 110.218V109.466H66.2326V114.963L67.2058 115.129V115.876H64.0833V115.129ZM66.2326 107.824H65.0565V106.634H66.2326V107.824Z" fill="#999591"/>
<path d="M68.1073 110.218V109.466H70.1312L70.2446 110.396C70.4277 110.068 70.6526 109.811 70.9193 109.625C71.1899 109.44 71.4984 109.347 71.8446 109.347C71.9362 109.347 72.0297 109.355 72.1252 109.371C72.2248 109.383 72.3004 109.396 72.3521 109.412L72.1969 110.496L71.5282 110.461C71.2178 110.461 70.9571 110.534 70.7461 110.68C70.5352 110.822 70.372 111.024 70.2566 111.284V114.963L71.2297 115.129V115.876H68.1073V115.129L69.0804 114.963V110.384L68.1073 110.218Z" fill="#999591"/>
<path d="M75.9522 115.088C76.3422 115.088 76.6845 114.969 76.9791 114.732C77.2776 114.491 77.4268 114.197 77.4268 113.85H78.4836L78.4955 113.885C78.5154 114.438 78.2666 114.93 77.7492 115.36C77.2358 115.787 76.6368 116 75.9522 116C75.0129 116 74.2944 115.696 73.7969 115.088C73.3034 114.48 73.0566 113.715 73.0566 112.795V112.546C73.0566 111.634 73.3054 110.874 73.8029 110.265C74.3004 109.653 75.0168 109.347 75.9522 109.347C76.4696 109.347 76.9333 109.432 77.3432 109.602C77.7572 109.772 78.0995 110.005 78.3701 110.301L78.4239 111.723H77.4865L77.2298 110.716C77.0905 110.581 76.9114 110.473 76.6925 110.39C76.4736 110.307 76.2268 110.265 75.9522 110.265C75.3353 110.265 74.8935 110.486 74.6268 110.929C74.3641 111.367 74.2327 111.906 74.2327 112.546V112.795C74.2327 113.451 74.3641 113.998 74.6268 114.436C74.8895 114.871 75.3313 115.088 75.9522 115.088Z" fill="#999591"/>
<path d="M84.2628 114.928C84.0598 115.271 83.7971 115.536 83.4747 115.722C83.1563 115.907 82.7881 116 82.3702 116C81.6697 116 81.1224 115.777 80.7284 115.331C80.3343 114.884 80.1373 114.189 80.1373 113.245V110.384L79.397 110.218V109.466H81.3135V113.257C81.3135 113.94 81.415 114.41 81.6179 114.667C81.8209 114.924 82.1374 115.052 82.5672 115.052C82.9851 115.052 83.3294 114.969 83.6001 114.803C83.8747 114.634 84.0817 114.395 84.221 114.087V110.384L83.3553 110.218V109.466H85.3971V114.963L86.1374 115.129V115.876H84.3404L84.2628 114.928Z" fill="#999591"/>
<path d="M89.1226 107.919V109.466H90.3465V110.33H89.1226V114.223C89.1226 114.523 89.1842 114.734 89.3076 114.857C89.435 114.979 89.6022 115.04 89.8091 115.04C89.9126 115.04 90.028 115.032 90.1554 115.017C90.2868 114.997 90.3962 114.977 90.4838 114.957L90.645 115.757C90.5335 115.828 90.3703 115.886 90.1554 115.929C89.9405 115.976 89.7255 116 89.5106 116C89.033 116 88.6529 115.858 88.3703 115.574C88.0877 115.285 87.9464 114.835 87.9464 114.223V110.33H86.9255V109.466H87.9464V107.919H89.1226Z" fill="#999591"/>
<path d="M96.4898 111.48H95.6062L95.4152 110.71C95.2719 110.575 95.0908 110.469 94.8719 110.39C94.657 110.307 94.4122 110.265 94.1376 110.265C93.7196 110.265 93.4092 110.356 93.2062 110.538C93.0032 110.72 92.9017 110.939 92.9017 111.195C92.9017 111.448 92.9913 111.648 93.1704 111.794C93.3495 111.94 93.7137 112.07 94.2629 112.185C95.0789 112.359 95.6858 112.596 96.0839 112.896C96.4819 113.192 96.6809 113.591 96.6809 114.092C96.6809 114.661 96.448 115.121 95.9824 115.473C95.5207 115.824 94.9157 116 94.1674 116C93.6779 116 93.238 115.945 92.848 115.834C92.4579 115.72 92.1097 115.556 91.8032 115.342L91.7972 113.879H92.6808L92.9017 114.738C93.037 114.861 93.2201 114.95 93.451 115.005C93.6858 115.06 93.9246 115.088 94.1674 115.088C94.5853 115.088 94.9117 115.005 95.1465 114.839C95.3853 114.669 95.5047 114.448 95.5047 114.175C95.5047 113.919 95.4052 113.707 95.2062 113.541C95.0112 113.376 94.6391 113.231 94.0898 113.109C93.3057 112.939 92.7147 112.708 92.3166 112.416C91.9186 112.124 91.7196 111.729 91.7196 111.231C91.7196 110.71 91.9425 110.265 92.3883 109.898C92.838 109.531 93.4211 109.347 94.1376 109.347C94.6271 109.347 95.0669 109.41 95.457 109.537C95.847 109.663 96.1714 109.839 96.4301 110.064L96.4898 111.48Z" fill="#999591"/>
<path d="M100.735 113.553C100.735 113.071 100.874 112.651 101.153 112.291C101.435 111.928 101.855 111.565 102.412 111.201C102.102 110.81 101.871 110.463 101.72 110.159C101.569 109.851 101.493 109.535 101.493 109.211C101.493 108.543 101.686 108.03 102.072 107.67C102.462 107.307 102.997 107.125 103.678 107.125C104.307 107.125 104.818 107.305 105.212 107.665C105.606 108.024 105.803 108.456 105.803 108.962C105.803 109.349 105.698 109.685 105.487 109.969C105.28 110.25 104.972 110.538 104.562 110.834L103.911 111.308L105.941 113.731C106.104 113.474 106.231 113.19 106.323 112.878C106.414 112.566 106.46 112.236 106.46 111.889H107.511C107.511 112.406 107.433 112.886 107.278 113.328C107.123 113.771 106.898 114.167 106.603 114.519L107.708 115.846L107.696 115.876H106.329L105.821 115.271C105.503 115.508 105.151 115.69 104.765 115.816C104.379 115.939 103.979 116 103.565 116C102.701 116 102.012 115.773 101.499 115.319C100.989 114.865 100.735 114.276 100.735 113.553ZM103.565 115.088C103.851 115.088 104.134 115.04 104.412 114.946C104.691 114.847 104.954 114.707 105.2 114.525L103.045 111.948L102.806 112.12C102.444 112.388 102.203 112.645 102.084 112.89C101.969 113.135 101.911 113.356 101.911 113.553C101.911 114 102.052 114.367 102.335 114.655C102.617 114.944 103.027 115.088 103.565 115.088ZM102.669 109.199C102.669 109.408 102.723 109.627 102.83 109.857C102.938 110.082 103.099 110.328 103.314 110.597L104.138 110.034C104.365 109.884 104.518 109.722 104.597 109.548C104.681 109.371 104.723 109.175 104.723 108.962C104.723 108.721 104.625 108.508 104.43 108.322C104.239 108.136 103.988 108.044 103.678 108.044C103.356 108.044 103.107 108.156 102.932 108.381C102.757 108.603 102.669 108.875 102.669 109.199Z" fill="#999591"/>
<path d="M117.756 109.797H116.866L116.645 108.565C116.466 108.415 116.227 108.291 115.929 108.192C115.63 108.093 115.284 108.044 114.89 108.044C114.265 108.044 113.786 108.176 113.451 108.441C113.117 108.701 112.95 109.043 112.95 109.466C112.95 109.841 113.119 110.155 113.457 110.407C113.8 110.656 114.351 110.876 115.111 111.065C116.026 111.29 116.721 111.622 117.195 112.06C117.672 112.499 117.911 113.042 117.911 113.69C117.911 114.385 117.625 114.944 117.051 115.366C116.482 115.789 115.736 116 114.813 116C114.144 116 113.549 115.891 113.027 115.674C112.51 115.457 112.088 115.173 111.762 114.821V113.216H112.645L112.872 114.454C113.099 114.639 113.37 114.792 113.684 114.91C113.999 115.028 114.375 115.088 114.813 115.088C115.406 115.088 115.873 114.963 116.216 114.715C116.562 114.466 116.735 114.128 116.735 113.701C116.735 113.306 116.586 112.977 116.287 112.712C115.989 112.443 115.461 112.218 114.705 112.037C113.786 111.819 113.067 111.5 112.55 111.077C112.032 110.654 111.774 110.123 111.774 109.483C111.774 108.808 112.062 108.247 112.639 107.801C113.216 107.351 113.967 107.125 114.89 107.125C115.499 107.125 116.052 107.23 116.55 107.439C117.051 107.645 117.453 107.896 117.756 108.192V109.797Z" fill="#999591"/>
<path d="M118.86 115.129L119.834 114.963V107.552L118.86 107.386V106.634H121.01V110.319C121.233 110.011 121.505 109.772 121.828 109.602C122.15 109.432 122.508 109.347 122.902 109.347C123.595 109.347 124.132 109.552 124.514 109.963C124.896 110.374 125.087 111.006 125.087 111.859V114.963L126.06 115.129V115.876H122.938V115.129L123.911 114.963V111.847C123.911 111.318 123.796 110.927 123.565 110.674C123.338 110.421 122.998 110.295 122.544 110.295C122.222 110.295 121.927 110.372 121.66 110.526C121.398 110.676 121.181 110.881 121.01 111.142V114.963L121.983 115.129V115.876H118.86V115.129Z" fill="#999591"/>
<path d="M131.129 115.876C131.093 115.702 131.066 115.546 131.046 115.408C131.026 115.269 131.012 115.131 131.004 114.993C130.777 115.281 130.492 115.522 130.15 115.716C129.812 115.905 129.45 116 129.064 116C128.391 116 127.879 115.838 127.529 115.514C127.179 115.186 127.004 114.726 127.004 114.134C127.004 113.526 127.251 113.058 127.744 112.73C128.242 112.398 128.922 112.232 129.786 112.232H130.998V111.486C130.998 111.111 130.878 110.814 130.64 110.597C130.401 110.376 130.069 110.265 129.643 110.265C129.348 110.265 129.087 110.303 128.861 110.378C128.638 110.453 128.457 110.556 128.317 110.686L128.192 111.361H127.284V110.117C127.579 109.884 127.935 109.699 128.353 109.56C128.771 109.418 129.225 109.347 129.714 109.347C130.447 109.347 131.04 109.533 131.493 109.904C131.947 110.275 132.174 110.806 132.174 111.498V114.584C132.174 114.667 132.174 114.748 132.174 114.827C132.178 114.906 132.184 114.985 132.192 115.064L132.67 115.129V115.876H131.129ZM129.237 115.023C129.627 115.023 129.983 114.93 130.305 114.744C130.628 114.558 130.859 114.335 130.998 114.075V113.02H129.744C129.263 113.02 128.88 113.131 128.598 113.352C128.319 113.573 128.18 113.842 128.18 114.158C128.18 114.438 128.267 114.653 128.443 114.803C128.618 114.95 128.882 115.023 129.237 115.023Z" fill="#999591"/>
<path d="M135.768 110.218L134.992 110.336L136.323 113.986L136.431 114.448H136.467L136.58 113.986L137.87 110.336L137.088 110.218V109.466H139.583V110.218L139.052 110.307L136.885 115.876H135.995L133.804 110.307L133.273 110.218V109.466H135.768V110.218Z" fill="#999591"/>
<path d="M143.249 116C142.349 116 141.633 115.704 141.1 115.111C140.57 114.515 140.306 113.743 140.306 112.795V112.534C140.306 111.622 140.578 110.864 141.123 110.259C141.673 109.651 142.321 109.347 143.07 109.347C143.937 109.347 144.594 109.608 145.04 110.129C145.49 110.65 145.715 111.346 145.715 112.214V112.943H141.523L141.506 112.973C141.517 113.589 141.675 114.096 141.977 114.495C142.28 114.89 142.704 115.088 143.249 115.088C143.647 115.088 143.995 115.032 144.294 114.922C144.596 114.807 144.857 114.651 145.076 114.454L145.535 115.212C145.305 115.433 144.998 115.621 144.616 115.775C144.238 115.925 143.782 116 143.249 116ZM143.07 110.265C142.676 110.265 142.339 110.431 142.061 110.763C141.782 111.091 141.611 111.503 141.547 112.001L141.559 112.031H144.538V111.877C144.538 111.419 144.415 111.035 144.168 110.727C143.921 110.419 143.555 110.265 143.07 110.265Z" fill="#999591"/>
<path d="M151.822 111.48H150.939L150.747 110.71C150.604 110.575 150.423 110.469 150.204 110.39C149.989 110.307 149.744 110.265 149.47 110.265C149.052 110.265 148.741 110.356 148.538 110.538C148.335 110.72 148.234 110.939 148.234 111.195C148.234 111.448 148.324 111.648 148.503 111.794C148.682 111.94 149.046 112.07 149.595 112.185C150.411 112.359 151.018 112.596 151.416 112.896C151.814 113.192 152.013 113.591 152.013 114.092C152.013 114.661 151.78 115.121 151.315 115.473C150.853 115.824 150.248 116 149.5 116C149.01 116 148.57 115.945 148.18 115.834C147.79 115.72 147.442 115.556 147.135 115.342L147.13 113.879H148.013L148.234 114.738C148.369 114.861 148.552 114.95 148.783 115.005C149.018 115.06 149.257 115.088 149.5 115.088C149.918 115.088 150.244 115.005 150.479 114.839C150.718 114.669 150.837 114.448 150.837 114.175C150.837 113.919 150.738 113.707 150.539 113.541C150.343 113.376 149.971 113.231 149.422 113.109C148.638 112.939 148.047 112.708 147.649 112.416C147.251 112.124 147.052 111.729 147.052 111.231C147.052 110.71 147.275 110.265 147.721 109.898C148.17 109.531 148.753 109.347 149.47 109.347C149.959 109.347 150.399 109.41 150.789 109.537C151.179 109.663 151.504 109.839 151.762 110.064L151.822 111.48Z" fill="#999591"/>
<path d="M72.2861 7.87941L72.9309 7.79054L75.9697 0H76.9787L79.9638 7.79054L80.6026 7.87941V8.62588H78.1071V7.87941L78.7638 7.76684L78.1907 6.17911H74.71L74.119 7.76684L74.7757 7.87941V8.62588H72.2861V7.87941ZM75.0742 5.20159H77.8325L76.4832 1.49886H76.4474L75.0742 5.20159Z" fill="#999591"/>
<path d="M82.9967 2.96811L82.2564 3.09844L83.0982 6.29168L83.2355 7.06777H83.2713L83.4385 6.29168L84.7281 2.21571H85.6714L86.9669 6.29168L87.152 7.15663H87.1878L87.361 6.29168L88.155 3.09844L87.4028 2.96811V2.21571H89.8625V2.96811L89.3013 3.05105L87.6714 8.62588H86.7222L85.4684 4.72172L85.1997 3.64349L85.1639 3.64941L84.9132 4.72172L83.6833 8.62588H82.734L81.1041 3.05105L80.537 2.96811V2.21571H82.9967V2.96811Z" fill="#999591"/>
<path d="M93.7671 8.75029C92.8675 8.75029 92.1511 8.45407 91.6178 7.86163C91.0884 7.26525 90.8237 6.49311 90.8237 5.54521V5.28453C90.8237 4.37218 91.0964 3.61386 91.6416 3.00958C92.1909 2.40134 92.8397 2.09723 93.5879 2.09723C94.4556 2.09723 95.1123 2.3579 95.5581 2.87924C96.0079 3.40059 96.2328 4.09571 96.2328 4.96462V5.69332H92.0416L92.0237 5.72294C92.0357 6.33907 92.1929 6.84659 92.4954 7.2455C92.7979 7.64046 93.2218 7.83794 93.7671 7.83794C94.1651 7.83794 94.5133 7.78264 94.8118 7.67205C95.1143 7.55752 95.375 7.40151 95.5939 7.20403L96.0537 7.96235C95.8228 8.18353 95.5163 8.37113 95.1342 8.52516C94.7561 8.67525 94.3004 8.75029 93.7671 8.75029ZM93.5879 3.0155C93.1939 3.0155 92.8576 3.18138 92.579 3.51315C92.3004 3.84096 92.1292 4.2537 92.0655 4.75134L92.0775 4.78096H95.0566V4.62693C95.0566 4.16878 94.9332 3.78567 94.6865 3.4776C94.4397 3.16954 94.0735 3.0155 93.5879 3.0155Z" fill="#999591"/>
<path d="M102.34 4.23H101.457L101.266 3.45983C101.122 3.32554 100.941 3.21891 100.722 3.13991C100.507 3.05697 100.263 3.0155 99.9881 3.0155C99.5701 3.0155 99.2597 3.10634 99.0567 3.28802C98.8537 3.4697 98.7522 3.68891 98.7522 3.94563C98.7522 4.1984 98.8418 4.39785 99.0209 4.54399C99.2 4.69012 99.5642 4.82046 100.113 4.935C100.929 5.10878 101.536 5.34575 101.934 5.64592C102.332 5.94214 102.531 6.34105 102.531 6.84264C102.531 7.41138 102.299 7.87151 101.833 8.22302C101.371 8.57453 100.766 8.75029 100.018 8.75029C99.5283 8.75029 99.0885 8.69499 98.6985 8.58441C98.3084 8.46987 97.9602 8.30596 97.6537 8.09268L97.6477 6.62937H98.5313L98.7522 7.4884C98.8875 7.61084 99.0706 7.6997 99.3015 7.755C99.5363 7.81029 99.7751 7.83794 100.018 7.83794C100.436 7.83794 100.762 7.755 100.997 7.58911C101.236 7.41928 101.355 7.19811 101.355 6.92558C101.355 6.66886 101.256 6.45756 101.057 6.29168C100.862 6.12579 100.49 5.98164 99.9403 5.8592C99.1562 5.68937 98.5651 5.45832 98.1671 5.16605C97.7691 4.87378 97.5701 4.47882 97.5701 3.98117C97.5701 3.45983 97.793 3.0155 98.2388 2.64819C98.6885 2.28088 99.2716 2.09723 99.9881 2.09723C100.478 2.09723 100.917 2.16042 101.307 2.28681C101.698 2.41319 102.022 2.58895 102.281 2.81407L102.34 4.23Z" fill="#999591"/>
<path d="M103.636 5.36155C103.636 4.41365 103.895 3.63361 104.412 3.02143C104.929 2.40529 105.632 2.09723 106.52 2.09723C107.411 2.09723 108.116 2.40332 108.633 3.0155C109.154 3.62769 109.415 4.4097 109.415 5.36155V5.49189C109.415 6.44769 109.156 7.2297 108.639 7.83794C108.122 8.44617 107.419 8.75029 106.531 8.75029C105.636 8.75029 104.929 8.44617 104.412 7.83794C103.895 7.22575 103.636 6.44374 103.636 5.49189V5.36155ZM104.812 5.49189C104.812 6.17122 104.955 6.73206 105.242 7.17441C105.532 7.61676 105.962 7.83794 106.531 7.83794C107.089 7.83794 107.513 7.61676 107.803 7.17441C108.094 6.73206 108.239 6.17122 108.239 5.49189V5.36155C108.239 4.69012 108.094 4.13126 107.803 3.68496C107.513 3.23865 107.085 3.0155 106.52 3.0155C105.954 3.0155 105.528 3.23865 105.242 3.68496C104.955 4.13126 104.812 4.69012 104.812 5.36155V5.49189Z" fill="#999591"/>
<path d="M110.263 7.87941L111.236 7.71352V3.13399L110.263 2.96811V2.21571H112.293L112.37 3.05105C112.577 2.74693 112.844 2.51193 113.17 2.34605C113.497 2.18017 113.875 2.09723 114.305 2.09723C114.735 2.09723 115.103 2.19597 115.409 2.39344C115.72 2.59092 115.953 2.88714 116.108 3.2821C116.311 2.91874 116.579 2.63042 116.914 2.41714C117.248 2.20386 117.638 2.09723 118.084 2.09723C118.745 2.09723 119.266 2.32235 119.648 2.7726C120.03 3.21891 120.221 3.89231 120.221 4.79281V7.71352L121.194 7.87941V8.62588H118.066V7.87941L119.039 7.71352V4.78096C119.039 4.14903 118.93 3.70273 118.711 3.44206C118.492 3.17744 118.167 3.04512 117.738 3.04512C117.328 3.04512 116.997 3.18928 116.747 3.4776C116.5 3.76197 116.356 4.12138 116.317 4.55584V7.71352L117.29 7.87941V8.62588H114.167V7.87941L115.141 7.71352V4.78096C115.141 4.18063 115.027 3.74222 114.8 3.46575C114.577 3.18533 114.253 3.04512 113.827 3.04512C113.469 3.04512 113.174 3.11819 112.944 3.26433C112.713 3.41046 112.536 3.61584 112.412 3.88046V7.71352L113.385 7.87941V8.62588H110.263V7.87941Z" fill="#999591"/>
<path d="M124.944 8.75029C124.044 8.75029 123.328 8.45407 122.794 7.86163C122.265 7.26525 122 6.49311 122 5.54521V5.28453C122 4.37218 122.273 3.61386 122.818 3.00958C123.368 2.40134 124.016 2.09723 124.765 2.09723C125.632 2.09723 126.289 2.3579 126.735 2.87924C127.185 3.40059 127.409 4.09571 127.409 4.96462V5.69332H123.218L123.2 5.72294C123.212 6.33907 123.37 6.84659 123.672 7.2455C123.975 7.64046 124.398 7.83794 124.944 7.83794C125.342 7.83794 125.69 7.78264 125.988 7.67205C126.291 7.55752 126.552 7.40151 126.771 7.20403L127.23 7.96235C126.999 8.18353 126.693 8.37113 126.311 8.52516C125.933 8.67525 125.477 8.75029 124.944 8.75029ZM124.765 3.0155C124.371 3.0155 124.034 3.18138 123.756 3.51315C123.477 3.84096 123.306 4.2537 123.242 4.75134L123.254 4.78096H126.233V4.62693C126.233 4.16878 126.11 3.78567 125.863 3.4776C125.616 3.16954 125.25 3.0155 124.765 3.0155Z" fill="#999591"/>
<rect y="91.8242" width="200" height="1.7333" fill="#FF9000"/>
<rect y="22.4923" width="200" height="1.7333" fill="#FF9000"/>
<path d="M46.3228 56.0974V68.2791C46.3228 69.3144 46.1109 70.3013 45.687 71.2396C45.2958 72.1455 44.7578 72.9382 44.073 73.6176C43.3883 74.2971 42.5732 74.831 41.6276 75.2192C40.7147 75.6398 39.7365 75.8501 38.6931 75.8501C37.6498 75.8501 36.6716 75.656 35.7586 75.2677C34.8457 74.8795 34.0468 74.3618 33.3621 73.7147C32.6774 73.0353 32.1231 72.2587 31.6992 71.3852C31.308 70.4792 31.096 69.5086 31.0634 68.4732V59.4947C30.9656 58.4917 30.5091 57.7637 29.694 57.3108C30.1505 57.0843 30.607 56.971 31.0634 56.971V45.5174C31.096 44.482 31.308 43.5114 31.6992 42.6054C32.1231 41.6995 32.6774 40.923 33.3621 40.2759C34.0468 39.5964 34.8457 39.0626 35.7586 38.6743C36.6716 38.286 37.6498 38.0919 38.6931 38.0919C39.7365 38.0919 40.7147 38.3022 41.6276 38.7228C42.5732 39.1111 43.3883 39.645 44.073 40.3244C44.7578 41.0039 45.2958 41.8127 45.687 42.751C46.1109 43.657 46.3228 44.6438 46.3228 45.7115C46.3228 46.2615 46.3717 46.666 46.4696 46.9248C46.6 47.1837 46.7304 47.394 46.8608 47.5557C46.9912 47.7175 47.1054 47.8631 47.2032 47.9925C47.3336 48.122 47.3988 48.3323 47.3988 48.6235H44.8556C44.3339 48.5587 44.073 48.2837 44.073 47.7984C44.073 48.2837 43.8122 48.5587 43.2905 48.6235H40.6984C40.6984 48.3323 40.7473 48.122 40.8451 47.9925C40.9755 47.8631 41.1059 47.7175 41.2364 47.5557C41.3668 47.394 41.4809 47.1837 41.5787 46.9248C41.7091 46.666 41.7744 46.2454 41.7744 45.663V45.6144C41.7744 45.1938 41.7581 44.6923 41.7255 44.1099C41.6928 43.4952 41.5787 42.9128 41.3831 42.3628C41.1875 41.8127 40.8777 41.3436 40.4538 40.9553C40.03 40.5671 39.4431 40.3729 38.6931 40.3729C37.9106 40.3729 37.3074 40.5833 36.8835 41.0039C36.4923 41.3921 36.1988 41.8613 36.0032 42.4113C35.8075 42.9613 35.6934 43.5437 35.6608 44.1585C35.6282 44.7732 35.6119 45.2909 35.6119 45.7115V56.971C36.0684 56.971 36.5249 57.0843 36.9813 57.3108C36.1662 57.7637 35.7097 58.4917 35.6119 59.4947V68.2791C35.6119 68.6997 35.6282 69.2174 35.6608 69.8321C35.6934 70.4145 35.8075 70.9969 36.0032 71.5793C36.1988 72.1293 36.4923 72.5985 36.8835 72.9867C37.3074 73.375 37.9106 73.5691 38.6931 73.5691C39.4757 73.5691 40.0626 73.375 40.4538 72.9867C40.8777 72.5985 41.1875 72.1293 41.3831 71.5793C41.5787 70.9969 41.6928 70.4145 41.7255 69.8321C41.7581 69.2174 41.7744 68.6997 41.7744 68.2791V58.3299C41.4157 58.3623 41.1059 58.5079 40.8451 58.7667C40.6169 59.0256 40.5027 59.3329 40.5027 59.6888V59.7374C40.4701 60.2227 40.3397 60.6433 40.1115 60.9992C39.9158 61.3228 39.6224 61.614 39.2311 61.8728C38.8399 62.0993 38.2693 62.2125 37.5193 62.2125V56.0974H46.3228ZM33.7045 54.69C33.7045 54.4959 33.6882 54.3017 33.6556 54.1076C33.6556 53.9135 33.6556 53.7355 33.6556 53.5738V52.4575C33.623 51.7457 33.6067 51.0663 33.6067 50.4192C33.6067 49.7721 33.5904 49.1573 33.5578 48.5749C33.5252 48.2837 33.5089 48.0249 33.5089 47.7984C33.5089 47.5396 33.4926 47.2807 33.4599 47.0219C33.4599 46.7954 33.4436 46.5851 33.411 46.391C33.411 46.1645 33.411 45.9703 33.411 45.8086C33.411 45.6468 33.3947 45.5012 33.3621 45.3718C33.3621 45.2424 33.3621 45.1291 33.3621 45.0321V44.7894C33.3295 44.7894 33.3132 44.8056 33.3132 44.8379V45.0321C33.3132 45.1291 33.2969 45.2424 33.2643 45.3718C33.2643 45.5012 33.2643 45.6468 33.2643 45.8086C33.2643 45.9703 33.248 46.1645 33.2154 46.391C33.2154 46.5851 33.2154 46.7954 33.2154 47.0219C33.1828 47.2807 33.1665 47.5396 33.1665 47.7984C33.1665 48.0249 33.1502 48.2837 33.1176 48.5749C33.085 49.1573 33.0687 49.7721 33.0687 50.4192C33.0687 51.0663 33.0524 51.7457 33.0198 52.4575V53.5738C33.0198 53.7355 33.0035 53.9135 32.9709 54.1076C32.9709 54.3017 32.9709 54.4959 32.9709 54.69V59.2035C32.9709 59.3006 32.9709 59.3976 32.9709 59.4947C33.0035 59.5918 33.0198 59.6727 33.0198 59.7374V61.3875C33.0198 61.7434 33.0198 62.0993 33.0198 62.4552C33.0524 62.7787 33.0687 63.1023 33.0687 63.4258C33.0687 63.7817 33.0687 64.1215 33.0687 64.445C33.1013 64.7362 33.1176 65.0112 33.1176 65.2701C33.1502 65.5613 33.1665 65.8363 33.1665 66.0951C33.1665 66.354 33.1828 66.5966 33.2154 66.8231C33.2154 67.0819 33.2154 67.3084 33.2154 67.5026C33.248 67.6967 33.2643 67.8746 33.2643 68.0364C33.2643 68.1982 33.2643 68.3438 33.2643 68.4732C33.2969 68.6026 33.3132 68.7159 33.3132 68.8129V69.0556C33.3132 69.088 33.3295 69.1041 33.3621 69.1041V68.8129C33.3621 68.7159 33.3621 68.6026 33.3621 68.4732C33.3947 68.3438 33.411 68.1982 33.411 68.0364C33.411 67.8746 33.411 67.6967 33.411 67.5026C33.4436 67.3084 33.4599 67.0819 33.4599 66.8231C33.4926 66.5966 33.5089 66.354 33.5089 66.0951C33.5089 65.8363 33.5252 65.5613 33.5578 65.2701C33.5578 65.0112 33.5578 64.7362 33.5578 64.445C33.5904 64.1215 33.6067 63.7817 33.6067 63.4258C33.6067 63.1023 33.6067 62.7787 33.6067 62.4552C33.6393 62.0993 33.6556 61.7434 33.6556 61.3875V60.3198C33.6556 60.0609 33.6719 59.8668 33.7045 59.7374V54.69ZM44.3665 61.7272C44.3339 61.4037 44.3176 61.1125 44.3176 60.8536C44.3176 60.5624 44.3013 60.2874 44.2687 60.0286C44.2361 59.5432 44.1872 59.1388 44.122 58.8153C44.122 58.7505 44.1057 58.6858 44.073 58.6211C44.073 58.5564 44.073 58.5079 44.073 58.4755V58.3299L44.0241 58.3785V58.4755C44.0241 58.5079 44.0078 58.5564 43.9752 58.6211C43.9752 58.6858 43.9752 58.7505 43.9752 58.8153C43.91 59.1388 43.8611 59.5432 43.8285 60.0286C43.7959 60.2874 43.7796 60.5624 43.7796 60.8536C43.7796 61.1125 43.7633 61.4037 43.7307 61.7272V62.2125C43.7307 62.3096 43.7144 62.4067 43.6818 62.5037C43.6818 62.5684 43.6818 62.6331 43.6818 62.6979V64.7362C43.6818 64.8333 43.6981 64.9142 43.7307 64.9789V65.7069C43.7307 65.8686 43.7307 66.0142 43.7307 66.1437C43.7633 66.2731 43.7796 66.4187 43.7796 66.5804C43.7796 66.7422 43.7796 66.8878 43.7796 67.0172C43.8122 67.1467 43.8285 67.2761 43.8285 67.4055C43.8611 67.5349 43.8774 67.6643 43.8774 67.7938C43.8774 67.8908 43.8937 67.9879 43.9263 68.0849C43.9263 68.182 43.9263 68.2791 43.9263 68.3761C43.9589 68.4732 43.9752 68.5541 43.9752 68.6188C43.9752 68.6835 43.9752 68.7482 43.9752 68.8129C44.0078 68.8776 44.0241 68.9262 44.0241 68.9585V69.0556C44.0241 69.088 44.0404 69.1041 44.073 69.1041V68.9585C44.073 68.9262 44.073 68.8776 44.073 68.8129C44.1057 68.7482 44.122 68.6835 44.122 68.6188C44.122 68.5541 44.122 68.4732 44.122 68.3761C44.1546 68.2791 44.1709 68.182 44.1709 68.0849C44.2035 67.9879 44.2198 67.8908 44.2198 67.7938C44.2198 67.6643 44.2361 67.5349 44.2687 67.4055C44.2687 67.2761 44.2687 67.1467 44.2687 67.0172C44.3013 66.8878 44.3176 66.7422 44.3176 66.5804C44.3176 66.4187 44.3176 66.2731 44.3176 66.1437C44.3502 66.0142 44.3665 65.8686 44.3665 65.7069V65.2215C44.3665 65.0921 44.3828 65.0112 44.4154 64.9789V62.6979C44.4154 62.6331 44.3991 62.5684 44.3665 62.5037C44.3665 62.4067 44.3665 62.3096 44.3665 62.2125V61.7272Z" fill="#F4EDE8"/>
<path d="M64.0903 57.0196C64.6446 57.0196 65.1011 57.1328 65.4597 57.3593C65.1011 57.5858 64.7913 57.8931 64.5305 58.2814C64.3022 58.6697 64.1555 59.0903 64.0903 59.5432V66.8716C64.0577 67.907 63.8295 68.8776 63.4056 69.7836C63.0143 70.6572 62.4763 71.4337 61.7916 72.1131C61.1069 72.7602 60.3081 73.2779 59.3951 73.6662C58.4821 74.0544 57.504 74.2486 56.4606 74.2486C55.4172 74.2486 54.4391 74.0544 53.5261 73.6662C52.6132 73.2779 51.8143 72.7602 51.1296 72.1131C50.4449 71.4337 49.8906 70.6572 49.4667 69.7836C49.0755 68.8776 48.8635 67.907 48.8309 66.8716V59.5432C48.7331 58.5402 48.2766 57.8123 47.4615 57.3593C47.8201 57.1328 48.2766 57.0196 48.8309 57.0196V47.6528C48.8635 46.6498 49.0755 45.6953 49.4667 44.7894C49.8906 43.8835 50.4449 43.1069 51.1296 42.4598C51.8143 41.7804 52.6132 41.2465 53.5261 40.8583C54.4391 40.47 55.4172 40.2759 56.4606 40.2759C57.504 40.2759 58.4821 40.47 59.3951 40.8583C60.3081 41.2465 61.1069 41.7804 61.7916 42.4598C62.4763 43.1069 63.0143 43.8835 63.4056 44.7894C63.8295 45.6953 64.0577 46.6498 64.0903 47.6528V57.0196ZM51.472 55.2724C51.472 55.1106 51.4557 54.965 51.423 54.8356C51.423 54.6738 51.423 54.5121 51.423 54.3503V53.4282C51.3904 52.8134 51.3741 52.231 51.3741 51.681C51.3741 51.131 51.3578 50.6133 51.3252 50.128C51.2926 49.9015 51.2763 49.675 51.2763 49.4485C51.2763 49.222 51.26 49.0117 51.2274 48.8176C51.2274 48.6235 51.2111 48.4455 51.1785 48.2837C51.1785 48.122 51.1785 47.9764 51.1785 47.8469C51.1785 47.6852 51.1622 47.5557 51.1296 47.4587C51.1296 47.3293 51.1296 47.2322 51.1296 47.1675V46.9248C51.097 46.9248 51.0807 46.941 51.0807 46.9734V47.1675C51.0807 47.2322 51.0644 47.3293 51.0318 47.4587C51.0318 47.5557 51.0318 47.6852 51.0318 47.8469C51.0318 47.9764 51.0155 48.122 50.9829 48.2837C50.9829 48.4455 50.9829 48.6235 50.9829 48.8176C50.9503 49.0117 50.934 49.222 50.934 49.4485C50.934 49.675 50.9177 49.9015 50.8851 50.128C50.8525 50.6133 50.8362 51.131 50.8362 51.681C50.8362 52.231 50.8198 52.8134 50.7872 53.4282V54.3503C50.7872 54.5121 50.7709 54.6738 50.7383 54.8356C50.7383 54.965 50.7383 55.1106 50.7383 55.2724V59.1065C50.7383 59.3329 50.7546 59.4947 50.7872 59.5918V60.9992C50.7872 61.2904 50.7872 61.5816 50.7872 61.8728C50.8198 62.164 50.8362 62.439 50.8362 62.6979C50.8362 62.989 50.8362 63.2641 50.8362 63.5229C50.8688 63.7494 50.8851 63.9921 50.8851 64.2509C50.9177 64.5097 50.934 64.7524 50.934 64.9789C50.934 65.173 50.9503 65.3671 50.9829 65.5613C50.9829 65.7554 50.9829 65.9333 50.9829 66.0951C51.0155 66.2569 51.0318 66.4187 51.0318 66.5804C51.0318 66.7422 51.0318 66.8878 51.0318 67.0172C51.0644 67.1143 51.0807 67.1952 51.0807 67.2599V67.4055C51.0807 67.4379 51.097 67.454 51.1296 67.454V67.2599C51.1296 67.1952 51.1296 67.1143 51.1296 67.0172C51.1622 66.8878 51.1785 66.7422 51.1785 66.5804C51.1785 66.4187 51.1785 66.2569 51.1785 66.0951C51.2111 65.9333 51.2274 65.7554 51.2274 65.5613C51.26 65.3671 51.2763 65.173 51.2763 64.9789C51.2763 64.7524 51.2926 64.5097 51.3252 64.2509C51.3252 63.9921 51.3252 63.7494 51.3252 63.5229C51.3578 63.2641 51.3741 62.989 51.3741 62.6979C51.3741 62.439 51.3741 62.164 51.3741 61.8728C51.4067 61.5816 51.423 61.2904 51.423 60.9992V59.5918C51.4557 59.4947 51.472 59.3329 51.472 59.1065V55.2724ZM59.5418 47.8469C59.5418 47.4263 59.5255 46.9086 59.4929 46.2939C59.4603 45.6792 59.3462 45.0968 59.1506 44.5467C58.9549 43.9967 58.6452 43.5276 58.2213 43.1393C57.83 42.7187 57.2431 42.5084 56.4606 42.5084C55.6781 42.5084 55.0749 42.7187 54.651 43.1393C54.2597 43.5276 53.9663 43.9967 53.7706 44.5467C53.575 45.0968 53.4609 45.6792 53.4283 46.2939C53.3957 46.9086 53.3794 47.4263 53.3794 47.8469V57.0196C53.9337 57.0196 54.3902 57.1328 54.7488 57.3593C53.9337 57.8123 53.4772 58.5402 53.3794 59.5432V66.6775C53.3794 67.0981 53.3957 67.6158 53.4283 68.2305C53.4609 68.8129 53.575 69.3953 53.7706 69.9777C53.9663 70.5277 54.2597 70.9969 54.651 71.3852C55.0749 71.7734 55.6781 71.9675 56.4606 71.9675C57.2431 71.9675 57.83 71.7734 58.2213 71.3852C58.6452 70.9969 58.9549 70.5277 59.1506 69.9777C59.3462 69.3953 59.4603 68.8129 59.4929 68.2305C59.5255 67.6158 59.5418 67.0981 59.5418 66.6775V59.5432C59.4766 58.5726 59.0201 57.8446 58.1724 57.3593C58.5311 57.1328 58.9875 57.0196 59.5418 57.0196V47.8469ZM62.1829 55.2724C62.1829 55.1106 62.1829 54.965 62.1829 54.8356C62.1829 54.6738 62.1666 54.5121 62.134 54.3503V53.4282C62.134 52.8134 62.1177 52.231 62.0851 51.681C62.0851 51.131 62.0688 50.6133 62.0362 50.128C62.0035 49.9015 61.9872 49.675 61.9872 49.4485C61.9872 49.222 61.9709 49.0117 61.9383 48.8176C61.9383 48.6235 61.922 48.4455 61.8894 48.2837C61.8894 48.122 61.8894 47.9764 61.8894 47.8469C61.8894 47.6852 61.8731 47.5557 61.8405 47.4587C61.8405 47.3293 61.8405 47.2322 61.8405 47.1675V46.9248C61.8079 46.9248 61.7916 46.941 61.7916 46.9734V47.1675C61.7916 47.2322 61.7916 47.3293 61.7916 47.4587C61.7916 47.5557 61.7753 47.6852 61.7427 47.8469C61.7427 47.9764 61.7264 48.122 61.6938 48.2837C61.6938 48.4455 61.6938 48.6235 61.6938 48.8176C61.6612 49.0117 61.6449 49.222 61.6449 49.4485C61.6449 49.675 61.6286 49.9015 61.596 50.128C61.5634 50.6133 61.5471 51.131 61.5471 51.681C61.5471 52.231 61.5308 52.8134 61.4982 53.4282V55.2724C61.4656 55.5959 61.4493 55.9195 61.4493 56.243C61.4493 56.5666 61.4493 56.8901 61.4493 57.2137C61.4493 57.5372 61.4493 57.8608 61.4493 58.1843C61.4493 58.4755 61.4656 58.7829 61.4982 59.1065V60.9992C61.4982 61.2904 61.4982 61.5816 61.4982 61.8728C61.5308 62.164 61.5471 62.439 61.5471 62.6979C61.5471 62.989 61.5471 63.2641 61.5471 63.5229C61.5797 63.7494 61.596 63.9921 61.596 64.2509C61.6286 64.5097 61.6449 64.7524 61.6449 64.9789C61.6449 65.173 61.6612 65.3671 61.6938 65.5613C61.6938 65.7554 61.6938 65.9333 61.6938 66.0951C61.7264 66.2569 61.7427 66.4187 61.7427 66.5804C61.7753 66.7422 61.7916 66.8878 61.7916 67.0172C61.7916 67.1143 61.7916 67.1952 61.7916 67.2599V67.4055C61.7916 67.4379 61.8079 67.454 61.8405 67.454V67.2599C61.8405 67.1952 61.8405 67.1143 61.8405 67.0172C61.8731 66.8878 61.8894 66.7422 61.8894 66.5804C61.8894 66.4187 61.8894 66.2569 61.8894 66.0951C61.922 65.9333 61.9383 65.7554 61.9383 65.5613C61.9709 65.3671 61.9872 65.173 61.9872 64.9789C61.9872 64.7524 62.0035 64.5097 62.0362 64.2509C62.0362 63.9921 62.0362 63.7494 62.0362 63.5229C62.0688 63.2641 62.0851 62.989 62.0851 62.6979C62.0851 62.439 62.0851 62.164 62.0851 61.8728C62.1177 61.5816 62.134 61.2904 62.134 60.9992V60.0771C62.134 60.0124 62.134 59.9315 62.134 59.8344C62.1666 59.7374 62.1829 59.6565 62.1829 59.5918V55.2724Z" fill="#F4EDE8"/>
<path d="M82.2399 50.7589C82.2399 52.2149 81.8812 53.5252 81.1639 54.69C80.4466 55.8548 79.4847 56.7607 78.2783 57.4078C78.8652 57.8608 79.4032 58.3946 79.8923 59.0094C80.3814 59.5918 80.7889 60.2389 81.115 60.9507C81.4736 61.6625 81.7508 62.3905 81.9464 63.1346C82.1421 63.8788 82.2399 64.6068 82.2399 65.3186V68.4247C82.2073 69.46 81.9953 70.4307 81.6041 71.3366C81.2128 72.2102 80.6748 72.9867 79.9901 73.6662C79.3054 74.3133 78.5065 74.831 77.5936 75.2192C76.6806 75.6398 75.7025 75.8501 74.6591 75.8501H70.0617C69.8335 75.8501 69.6378 75.7692 69.4748 75.6075C69.3444 75.4457 69.2792 75.2516 69.2792 75.0251C69.2792 75.2516 69.1977 75.4457 69.0346 75.6075C68.8716 75.7692 68.6923 75.8501 68.4966 75.8501H65.9045C65.9045 75.5589 65.9534 75.3486 66.0512 75.2192C66.1816 75.0898 66.3121 74.9442 66.4425 74.7824C66.5729 74.653 66.687 74.4589 66.7848 74.2C66.9153 73.9412 66.9805 73.5368 66.9805 72.9867V59.4462C66.8827 58.4755 66.4262 57.7637 65.611 57.3108C66.0349 57.0519 66.4914 56.9225 66.9805 56.9225V40.9553C66.9805 40.4053 66.9153 40.0009 66.7848 39.742C66.687 39.4832 66.5729 39.2891 66.4425 39.1596C66.3121 38.9979 66.1816 38.8523 66.0512 38.7228C65.9534 38.5934 65.9045 38.3831 65.9045 38.0919H68.4966C68.6923 38.0919 68.8716 38.1728 69.0346 38.3346C69.1977 38.464 69.2792 38.642 69.2792 38.8684C69.2792 38.3508 69.54 38.0919 70.0617 38.0919H74.6591C75.7025 38.0919 76.6806 38.286 77.5936 38.6743C78.5065 39.0626 79.3054 39.5964 79.9901 40.2759C80.6748 40.923 81.2128 41.6995 81.6041 42.6054C81.9953 43.5114 82.2073 44.4658 82.2399 45.4688V50.7589ZM69.6215 54.3503C69.6215 54.1238 69.6052 53.9135 69.5726 53.7194C69.5726 53.4929 69.5726 53.2826 69.5726 53.0884V51.8266C69.54 50.9854 69.5237 50.1927 69.5237 49.4485C69.5237 48.7043 69.5074 48.0087 69.4748 47.3616C69.4422 47.0057 69.4259 46.6822 69.4259 46.391C69.4259 46.0998 69.4096 45.8248 69.377 45.5659C69.377 45.3071 69.3607 45.0644 69.3281 44.8379C69.3281 44.5791 69.3281 44.3688 69.3281 44.207C69.3281 44.0129 69.3118 43.8349 69.2792 43.6731C69.2792 43.5114 69.2792 43.382 69.2792 43.2849V42.9937C69.2466 43.026 69.2303 43.0584 69.2303 43.0908V43.2849C69.2303 43.382 69.214 43.5114 69.1814 43.6731C69.1814 43.8349 69.1814 44.0129 69.1814 44.207C69.1814 44.3688 69.165 44.5791 69.1324 44.8379C69.1324 45.0644 69.1324 45.3071 69.1324 45.5659C69.0998 45.8248 69.0835 46.0998 69.0835 46.391C69.0835 46.6822 69.0672 47.0057 69.0346 47.3616C69.002 48.0087 68.9857 48.7043 68.9857 49.4485C68.9857 50.1927 68.9694 50.9854 68.9368 51.8266V53.0884C68.9368 53.2826 68.9368 53.4929 68.9368 53.7194C68.9368 53.9135 68.9205 54.1238 68.8879 54.3503V59.5432C68.8879 59.6727 68.8879 59.7859 68.8879 59.883C68.9205 59.98 68.9368 60.0933 68.9368 60.2227V62.0669C68.9368 62.4875 68.9368 62.9082 68.9368 63.3288C68.9694 63.717 68.9857 64.0891 68.9857 64.445C68.9857 64.8009 68.9857 65.1568 68.9857 65.5127C69.0183 65.8686 69.0346 66.2245 69.0346 66.5804C69.0672 66.7422 69.0835 66.904 69.0835 67.0658C69.0835 67.1952 69.0835 67.3408 69.0835 67.5026C69.0835 67.6643 69.0835 67.8099 69.0835 67.9394C69.1161 68.0688 69.1324 68.1982 69.1324 68.3276C69.1324 68.5865 69.1324 68.8453 69.1324 69.1041C69.165 69.3306 69.1814 69.5409 69.1814 69.7351C69.1814 69.9292 69.1814 70.1071 69.1814 70.2689C69.214 70.3983 69.2303 70.5116 69.2303 70.6086V70.8513C69.2303 70.8837 69.2466 70.916 69.2792 70.9484V70.6086C69.2792 70.5116 69.2792 70.3983 69.2792 70.2689C69.3118 70.1071 69.3281 69.9292 69.3281 69.7351C69.3281 69.5409 69.3281 69.3306 69.3281 69.1041C69.3607 68.8453 69.377 68.5865 69.377 68.3276C69.4096 68.1982 69.4259 68.0688 69.4259 67.9394C69.4259 67.8099 69.4259 67.6643 69.4259 67.5026C69.4259 67.3408 69.4259 67.1952 69.4259 67.0658C69.4585 66.904 69.4748 66.7422 69.4748 66.5804C69.4748 66.2245 69.4748 65.8686 69.4748 65.5127C69.5074 65.1568 69.5237 64.8009 69.5237 64.445C69.5237 64.0891 69.5237 63.717 69.5237 63.3288C69.5563 62.9082 69.5726 62.4875 69.5726 62.0669V60.8536C69.5726 60.5624 69.5889 60.3521 69.6215 60.2227V54.3503ZM79.6966 67.454C79.664 67.5511 79.6477 67.7129 79.6477 67.9394V68.8129C79.6477 68.9747 79.6314 69.1203 79.5988 69.2497C79.5988 69.3791 79.5988 69.5086 79.5988 69.638C79.5988 69.7674 79.5825 69.8806 79.5499 69.9777C79.5499 70.0748 79.5499 70.1718 79.5499 70.2689V70.4145C79.5173 70.4469 79.501 70.4954 79.501 70.5601V70.8028C79.4684 70.8351 79.4521 70.8675 79.4521 70.8998V70.9969C79.4521 71.0293 79.4358 71.0616 79.4032 71.094C79.4032 71.094 79.4032 71.1101 79.4032 71.1425C79.4032 71.1748 79.3869 71.2072 79.3543 71.2396H79.4032C79.4032 71.2396 79.4195 71.2072 79.4521 71.1425C79.4521 71.1425 79.4684 71.1101 79.501 71.0454C79.5336 71.0131 79.5499 70.9807 79.5499 70.9484C79.5825 70.916 79.5988 70.8837 79.5988 70.8513C79.6314 70.8189 79.6477 70.7866 79.6477 70.7542C79.6803 70.7219 79.6966 70.6733 79.6966 70.6086C79.7618 70.5439 79.7945 70.463 79.7945 70.366C79.8597 70.2366 79.9249 70.0101 79.9901 69.6865C80.0553 69.4924 80.0879 69.363 80.0879 69.2983C80.1205 69.2336 80.1368 69.1688 80.1368 69.1041C80.1368 69.0071 80.1531 68.9262 80.1857 68.8615C80.1857 68.7968 80.1857 68.732 80.1857 68.6673C80.2183 68.5703 80.2346 68.4894 80.2346 68.4247C80.2672 68.3276 80.2835 68.182 80.2835 67.9879C80.3161 67.8261 80.3324 67.6643 80.3324 67.5026C80.3324 67.3408 80.3487 67.179 80.3814 67.0172V64.9789C80.3814 64.8171 80.365 64.6553 80.3324 64.4936C80.3324 64.3318 80.3161 64.17 80.2835 64.0082C80.2835 63.8141 80.2672 63.6685 80.2346 63.5714C80.2346 63.5067 80.2183 63.442 80.1857 63.3773C80.1857 63.2802 80.1857 63.1994 80.1857 63.1346C80.1531 63.0699 80.1368 63.0052 80.1368 62.9405C80.1368 62.8435 80.1205 62.7626 80.0879 62.6979C80.0879 62.6331 80.0716 62.5684 80.039 62.5037C80.039 62.439 80.039 62.3743 80.039 62.3096C79.9738 62.1155 79.9412 62.0022 79.9412 61.9699C79.9086 61.8728 79.8597 61.7596 79.7945 61.6301C79.7945 61.5331 79.7618 61.4522 79.6966 61.3875C79.6966 61.2904 79.664 61.2095 79.5988 61.1448C79.5336 61.0154 79.4847 60.9183 79.4521 60.8536C79.4195 60.8213 79.4032 60.7889 79.4032 60.7566H79.3543C79.3543 60.7566 79.3706 60.7889 79.4032 60.8536C79.4032 60.886 79.4032 60.9183 79.4032 60.9507C79.4358 60.9507 79.4521 60.9669 79.4521 60.9992C79.4521 61.0639 79.4684 61.1286 79.501 61.1933V61.436C79.5336 61.5007 79.5499 61.5816 79.5499 61.6787C79.5499 61.8404 79.5662 61.9537 79.5988 62.0184V62.3581C79.6314 62.4875 79.6477 62.617 79.6477 62.7464C79.6477 62.8758 79.6477 63.0214 79.6477 63.1832V63.62C79.6477 63.6847 79.6477 63.7656 79.6477 63.8626C79.6803 63.9273 79.6966 63.9921 79.6966 64.0568V67.454ZM77.6914 65.3186C77.6914 64.898 77.6751 64.2994 77.6425 63.5229C77.6099 62.7464 77.4958 61.9699 77.3001 61.1933C77.1045 60.4168 76.7947 59.7536 76.3709 59.2035C75.9796 58.6211 75.3927 58.3299 74.6102 58.3299H72.8495C72.4908 58.3299 72.1811 58.4594 71.9202 58.7182C71.6594 58.977 71.5289 59.2844 71.5289 59.6403V72.2587C71.5289 72.6146 71.6594 72.922 71.9202 73.1809C72.1811 73.4073 72.4908 73.5368 72.8495 73.5691H74.6102C75.3927 73.5691 75.9796 73.375 76.3709 72.9867C76.7947 72.5661 77.1045 72.0808 77.3001 71.5308C77.4958 70.9807 77.6099 70.3983 77.6425 69.7836C77.6751 69.1688 77.6914 68.6512 77.6914 68.2305V65.3186ZM77.6914 45.663C77.6914 45.2424 77.6751 44.7409 77.6425 44.1585C77.6099 43.5437 77.4958 42.9613 77.3001 42.4113C77.1045 41.8613 76.7947 41.3921 76.3709 41.0039C75.9796 40.5833 75.3927 40.3729 74.6102 40.3729H72.8495C72.4908 40.3729 72.1811 40.5024 71.9202 40.7612C71.6594 41.02 71.5289 41.3274 71.5289 41.6833V54.7385C71.5289 55.0944 71.6594 55.4018 71.9202 55.6607C72.1811 55.9195 72.4908 56.0489 72.8495 56.0489H74.6102C75.3927 56.0489 75.9796 55.8548 76.3709 55.4665C76.7947 55.0783 77.1045 54.6091 77.3001 54.0591C77.4958 53.4767 77.6099 52.8943 77.6425 52.3119C77.6751 51.6972 77.6914 51.1795 77.6914 50.7589V45.663ZM79.8923 52.0693C79.9575 51.8751 79.9901 51.7457 79.9901 51.681C80.0553 51.5516 80.0879 51.4222 80.0879 51.2927C80.1205 51.228 80.1368 51.1633 80.1368 51.0986C80.1368 51.0015 80.1531 50.9207 80.1857 50.8559C80.1857 50.7912 80.1857 50.7265 80.1857 50.6618C80.2183 50.5647 80.2346 50.4677 80.2346 50.3706C80.2672 50.2736 80.2835 50.1118 80.2835 49.8853C80.3161 49.7235 80.3324 49.5617 80.3324 49.4C80.3324 49.2382 80.3487 49.0764 80.3814 48.9146V47.8469C80.3814 47.491 80.3814 47.1513 80.3814 46.8278C80.3814 46.4718 80.365 46.1321 80.3324 45.8086C80.2998 45.7115 80.2835 45.6306 80.2835 45.5659C80.2835 45.4688 80.2672 45.388 80.2346 45.3233C80.2346 45.0968 80.2183 44.935 80.1857 44.8379C80.1531 44.6762 80.1205 44.5306 80.0879 44.4011C80.0879 44.2717 80.0716 44.1423 80.039 44.0129C79.9738 43.8187 79.9412 43.6893 79.9412 43.6246C79.876 43.4952 79.8434 43.3981 79.8434 43.3334C79.7781 43.204 79.7292 43.1069 79.6966 43.0422C79.6966 42.9452 79.664 42.8643 79.5988 42.7996C79.5662 42.7025 79.5173 42.5893 79.4521 42.4598L79.3543 42.3628V42.4113C79.3543 42.4437 79.3543 42.4598 79.3543 42.4598C79.3869 42.4598 79.4032 42.476 79.4032 42.5084C79.4358 42.5407 79.4521 42.5893 79.4521 42.654C79.4521 42.7187 79.4684 42.7834 79.501 42.8481V43.0908C79.5336 43.1555 79.5499 43.2525 79.5499 43.382C79.5499 43.4467 79.5499 43.5114 79.5499 43.5761C79.5825 43.6084 79.5988 43.657 79.5988 43.7217V44.0614C79.6314 44.1908 79.6477 44.3202 79.6477 44.4497C79.6477 44.5791 79.6477 44.7247 79.6477 44.8865V45.3718C79.6477 45.4365 79.6477 45.5174 79.6477 45.6144C79.6803 45.6792 79.6966 45.7439 79.6966 45.8086V49.4C79.664 49.497 79.6477 49.6588 79.6477 49.8853V50.8074C79.6477 50.9692 79.6314 51.1148 79.5988 51.2442C79.5988 51.3736 79.5988 51.503 79.5988 51.6325C79.5988 51.7619 79.5825 51.8913 79.5499 52.0207C79.5499 52.1178 79.5499 52.2149 79.5499 52.3119C79.5499 52.4737 79.5336 52.5708 79.501 52.6031V52.8943C79.4684 52.8943 79.4521 52.9267 79.4521 52.9914V53.0884C79.4521 53.1208 79.4358 53.1531 79.4032 53.1855C79.4032 53.1855 79.4032 53.2017 79.4032 53.234C79.4032 53.2664 79.3869 53.2987 79.3543 53.3311L79.4521 53.234C79.4521 53.2017 79.4521 53.1855 79.4521 53.1855C79.4847 53.1531 79.501 53.1208 79.501 53.0884C79.5336 53.0884 79.5499 53.0561 79.5499 52.9914C79.5825 52.9914 79.5988 52.959 79.5988 52.8943C79.6314 52.8943 79.6477 52.862 79.6477 52.7972C79.6803 52.7649 79.6966 52.7164 79.6966 52.6516C79.7618 52.5869 79.7945 52.506 79.7945 52.409C79.8597 52.2149 79.8923 52.1016 79.8923 52.0693Z" fill="#F4EDE8"/>
<path d="M100.739 71.3366C100.869 71.8867 101.016 72.2911 101.179 72.5499C101.342 72.8088 101.505 73.0191 101.668 73.1809C101.831 73.3426 101.978 73.4882 102.108 73.6176C102.239 73.7471 102.337 73.9574 102.402 74.2486H99.8098C99.5816 74.2486 99.3696 74.1677 99.174 74.0059C99.011 73.8441 98.9131 73.65 98.8805 73.4235C98.9131 73.65 98.8642 73.8441 98.7338 74.0059C98.6034 74.1677 98.4404 74.2486 98.2447 74.2486H95.6526C95.5874 73.9574 95.6037 73.7471 95.7015 73.6176C95.7993 73.4882 95.8971 73.3588 95.9949 73.2294C96.0928 73.0676 96.1743 72.8573 96.2395 72.5985C96.3047 72.3073 96.2884 71.8705 96.1906 71.2881V71.2396L95.1146 65.7554C95.0494 65.4318 94.8701 65.1568 94.5766 64.9303C94.2832 64.6715 93.9571 64.5421 93.5984 64.5421H90.2238C89.8651 64.5421 89.539 64.6715 89.2456 64.9303C88.9521 65.1568 88.7728 65.4318 88.7076 65.7554L87.6805 71.2396V71.2881C87.5827 71.8705 87.5501 72.3073 87.5827 72.5985C87.6479 72.8573 87.7294 73.0676 87.8273 73.2294C87.9577 73.3588 88.0555 73.4882 88.1207 73.6176C88.2185 73.7471 88.2511 73.9574 88.2185 74.2486H85.6264C85.3981 74.2486 85.2188 74.1677 85.0884 74.0059C84.958 73.8441 84.9091 73.65 84.9417 73.4235C84.9091 73.65 84.8112 73.8441 84.6482 74.0059C84.4852 74.1677 84.2896 74.2486 84.0613 74.2486H81.4692C81.5018 73.9574 81.5833 73.7471 81.7137 73.6176C81.8441 73.4882 81.9909 73.3426 82.1539 73.1809C82.3169 73.0191 82.4799 72.8088 82.643 72.5499C82.806 72.2911 82.9527 71.8867 83.0831 71.3366L85.284 59.5432C85.3492 59.0903 85.3003 58.6697 85.1373 58.2814C84.9743 57.8931 84.7134 57.5858 84.3548 57.3593C84.8765 57.1328 85.3492 57.0196 85.7731 57.0196L88.4142 43.1878C88.512 42.6378 88.5283 42.2334 88.4631 41.9745C88.3979 41.6833 88.3163 41.473 88.2185 41.3436C88.1207 41.1818 88.0229 41.0362 87.9251 40.9068C87.8273 40.7774 87.811 40.5671 87.8762 40.2759H91.153C91.6421 40.3406 91.8866 40.6156 91.8866 41.1009C91.8866 40.8744 91.9519 40.6965 92.0823 40.5671C92.2453 40.4053 92.4246 40.3082 92.6203 40.2759H95.946C96.0112 40.5671 95.9949 40.7774 95.8971 40.9068C95.8319 41.0362 95.7504 41.1818 95.6526 41.3436C95.5548 41.473 95.4733 41.6833 95.408 41.9745C95.3428 42.2334 95.3591 42.6378 95.4569 43.1878L98.0491 57.0196C98.3099 57.0196 98.5545 57.0519 98.7827 57.1166C99.011 57.1813 99.2392 57.2622 99.4674 57.3593C98.7501 57.8123 98.4404 58.5402 98.5382 59.5432L100.739 71.3366ZM89.0011 53.962C89.0663 53.7679 89.0989 53.5899 89.0989 53.4282C89.1315 53.234 89.1641 53.0561 89.1967 52.8943C89.3597 52.1501 89.4901 51.4545 89.588 50.8074C89.6858 50.128 89.7836 49.5132 89.8814 48.9632C89.9466 48.7043 89.9792 48.4455 89.9792 48.1867C90.0118 47.9278 90.0444 47.669 90.077 47.4101C90.1096 47.1837 90.1423 46.9734 90.1749 46.7792C90.2075 46.5851 90.2401 46.4071 90.2727 46.2454C90.3053 46.0836 90.3216 45.938 90.3216 45.8086C90.3216 45.6468 90.3379 45.5174 90.3705 45.4203V45.2262L90.3216 45.4203C90.289 45.5174 90.2564 45.6306 90.2238 45.76C90.1912 45.8895 90.1586 46.0351 90.1259 46.1968C90.0607 46.3586 90.0118 46.5527 89.9792 46.7792C89.9466 46.9734 89.8977 47.1675 89.8325 47.3616C89.7673 47.6205 89.7021 47.8793 89.6369 48.1381C89.6043 48.397 89.5553 48.6558 89.4901 48.9146C89.3271 49.4647 89.1641 50.0632 89.0011 50.7103C88.8706 51.3251 88.7239 52.0045 88.5609 52.7487C88.5609 52.9428 88.5446 53.1208 88.512 53.2826C88.4794 53.4443 88.4305 53.6223 88.3652 53.8164C88.3326 54.0106 88.3 54.2047 88.2674 54.3988C88.2348 54.5606 88.2022 54.7385 88.1696 54.9327C88.0718 55.2886 87.974 55.6607 87.8762 56.0489C87.811 56.4372 87.7457 56.8254 87.6805 57.2137C87.6153 57.5696 87.5338 57.9417 87.436 58.3299C87.3708 58.7182 87.3056 59.0903 87.2404 59.4462C87.2078 59.5432 87.1915 59.6403 87.1915 59.7374C87.1915 59.8021 87.1751 59.883 87.1425 59.98C87.0773 60.2389 87.0447 60.433 87.0447 60.5624C86.9469 60.886 86.8817 61.2419 86.8491 61.6301C86.7839 61.986 86.7187 62.3419 86.6535 62.6979C86.5882 63.0538 86.5393 63.3773 86.5067 63.6685C86.4089 64.4127 86.3111 65.0274 86.2133 65.5127C86.1481 65.7716 86.0992 66.0304 86.0666 66.2893C86.034 66.5481 86.0013 66.8069 85.9687 67.0658C85.9035 67.2923 85.8546 67.5187 85.822 67.7452C85.822 67.9394 85.8057 68.1173 85.7731 68.2791C85.7405 68.4409 85.7242 68.5865 85.7242 68.7159C85.7242 68.8453 85.7079 68.9585 85.6753 69.0556C85.6753 69.1203 85.659 69.1688 85.6264 69.2012C85.6264 69.2012 85.6264 69.2174 85.6264 69.2497V69.2983C85.659 69.2983 85.6753 69.2821 85.6753 69.2497C85.6753 69.185 85.6916 69.1203 85.7242 69.0556C85.7568 68.9909 85.7731 68.8938 85.7731 68.7644C85.8057 68.6026 85.8546 68.4409 85.9198 68.2791C85.985 68.1173 86.034 67.9394 86.0666 67.7452C86.1318 67.5511 86.197 67.3408 86.2622 67.1143C86.3274 66.8878 86.3763 66.6452 86.4089 66.3863C86.4741 66.1275 86.523 65.8686 86.5556 65.6098C86.6208 65.351 86.6861 65.0759 86.7513 64.7847C86.8491 64.4612 86.9306 64.1376 86.9958 63.8141C87.061 63.4905 87.1262 63.1508 87.1915 62.7949C87.2893 62.439 87.3871 62.0831 87.4849 61.7272C87.5175 61.5654 87.5501 61.4037 87.5827 61.2419C87.6153 61.0478 87.6479 60.8698 87.6805 60.708L87.8273 60.1256C87.8599 60.0286 87.8762 59.9315 87.8762 59.8344C87.8762 59.7374 87.8925 59.6403 87.9251 59.5432C87.9903 59.1873 88.0718 58.8314 88.1696 58.4755C88.2674 58.0873 88.3489 57.699 88.4142 57.3108C88.4794 56.9549 88.5446 56.5828 88.6098 56.1945C88.675 55.8062 88.7402 55.4342 88.8054 55.0783C88.838 54.8841 88.8706 54.69 88.9032 54.4959C88.9358 54.3017 88.9685 54.1238 89.0011 53.962ZM93.1583 62.2611C93.5169 62.2287 93.7941 62.0993 93.9897 61.8728C94.2179 61.614 94.2995 61.3066 94.2342 60.9507L93.9408 59.5432C93.8104 59.0903 93.5821 58.6697 93.2561 58.2814C92.9626 57.8931 92.604 57.5858 92.1801 57.3593C92.5714 57.1328 92.9952 57.0196 93.4517 57.0196L91.8866 48.7205L90.3216 57.0196C90.7455 57.0196 91.1856 57.1328 91.6421 57.3593C91.1856 57.5858 90.7944 57.8931 90.4683 58.2814C90.1749 58.6697 89.9792 59.0903 89.8814 59.5432L89.6369 60.9507C89.5717 61.3066 89.6369 61.614 89.8325 61.8728C90.0281 62.0993 90.289 62.2287 90.615 62.2611H93.1583ZM98.098 69.0556C98.098 69.1203 98.098 69.1688 98.098 69.2012C98.1306 69.2012 98.1469 69.2174 98.1469 69.2497V69.0556C98.1143 68.9585 98.098 68.8453 98.098 68.7159C98.098 68.5865 98.0817 68.4409 98.0491 68.2791C98.0165 68.1173 97.9839 67.9394 97.9513 67.7452C97.9513 67.5187 97.9187 67.2923 97.8535 67.0658C97.8209 66.8069 97.7882 66.5481 97.7556 66.2893C97.723 66.0304 97.6741 65.7716 97.6089 65.5127C97.5111 65.0274 97.4133 64.4127 97.3155 63.6685C97.2503 63.3773 97.185 63.0538 97.1198 62.6979C97.0872 62.3419 97.0383 61.986 96.9731 61.6301C96.9079 61.436 96.859 61.2581 96.8264 61.0963C96.8264 60.9345 96.7938 60.7566 96.7286 60.5624C96.7286 60.433 96.696 60.2389 96.6308 59.98C96.6308 59.883 96.6144 59.8021 96.5818 59.7374C96.5818 59.6403 96.5818 59.5432 96.5818 59.4462C96.5166 59.0903 96.4351 58.7182 96.3373 58.3299C96.2721 57.9417 96.2069 57.5696 96.1417 57.2137C96.0765 56.8254 95.9949 56.4372 95.8971 56.0489C95.8319 55.6607 95.7504 55.2886 95.6526 54.9327C95.62 54.7385 95.5874 54.5606 95.5548 54.3988C95.5222 54.2047 95.4896 54.0106 95.4569 53.8164C95.3917 53.6223 95.3428 53.4443 95.3102 53.2826C95.2776 53.1208 95.245 52.9428 95.2124 52.7487C95.0494 52.0045 94.8864 51.3251 94.7233 50.7103C94.5929 50.0632 94.4788 49.4647 94.381 48.9146C94.3158 48.6558 94.2505 48.397 94.1853 48.1381C94.1201 47.8793 94.0549 47.6205 93.9897 47.3616C93.9245 47.1675 93.8593 46.9734 93.7941 46.7792C93.7615 46.5527 93.7126 46.3586 93.6473 46.1968C93.6147 46.0351 93.5821 45.8895 93.5495 45.76C93.5169 45.6306 93.4843 45.5174 93.4517 45.4203L93.4028 45.2262V45.4203C93.4354 45.5821 93.4843 45.8571 93.5495 46.2454C93.5495 46.4071 93.5658 46.5851 93.5984 46.7792C93.631 46.9734 93.6636 47.1837 93.6963 47.4101C93.7289 47.669 93.7615 47.9278 93.7941 48.1867C93.8267 48.4455 93.8756 48.7043 93.9408 48.9632C94.0386 49.5132 94.1364 50.128 94.2342 50.8074C94.3321 51.4545 94.4462 52.1501 94.5766 52.8943C94.6092 53.0561 94.6255 53.234 94.6255 53.4282C94.6581 53.5899 94.707 53.7679 94.7722 53.962C94.8048 54.1238 94.8374 54.3017 94.8701 54.4959C94.9027 54.69 94.9353 54.8841 94.9679 55.0783C95.0331 55.4342 95.0983 55.8062 95.1635 56.1945C95.2613 56.5828 95.3428 56.9549 95.408 57.3108C95.4733 57.699 95.5548 58.0873 95.6526 58.4755C95.7504 58.8314 95.8319 59.1873 95.8971 59.5432C95.9297 59.6403 95.946 59.7374 95.946 59.8344C95.946 59.9315 95.9623 60.0286 95.9949 60.1256L96.1417 60.708C96.1743 60.8698 96.2069 61.0478 96.2395 61.2419C96.2721 61.4037 96.3047 61.5654 96.3373 61.7272C96.4351 62.0831 96.5166 62.439 96.5818 62.7949C96.6471 63.1508 96.7123 63.4905 96.7775 63.8141C96.8427 64.1376 96.9079 64.4612 96.9731 64.7847C97.0709 65.0759 97.1524 65.351 97.2177 65.6098C97.2829 65.8686 97.3481 66.1275 97.4133 66.3863C97.4785 66.6452 97.5437 66.8878 97.6089 67.1143C97.7067 67.5673 97.8046 67.9555 97.9024 68.2791C97.9676 68.4409 98.0002 68.6026 98.0002 68.7644C98.0328 68.8938 98.0654 68.9909 98.098 69.0556Z" fill="#F4EDE8"/>
<path d="M121.26 76.2869C121.618 76.3516 121.863 76.4649 121.993 76.6267C122.156 76.7884 122.27 76.9502 122.336 77.112C122.401 77.3061 122.433 77.5164 122.433 77.7429C121.39 77.7429 120.412 77.6135 119.499 77.3546C118.586 77.0958 117.771 76.6752 117.053 76.0928C116.369 75.5104 115.814 74.7501 115.391 73.8118C114.999 72.8735 114.804 71.7249 114.804 70.366V63.717C114.804 63.2964 114.787 62.7787 114.755 62.164C114.722 61.5493 114.608 60.9669 114.412 60.4168C114.217 59.8668 113.907 59.3976 113.483 59.0094C113.092 58.5888 112.505 58.3785 111.722 58.3785H109.717C109.424 58.4432 109.163 58.605 108.935 58.8638C108.739 59.0903 108.641 59.3653 108.641 59.6888V71.2881C108.641 71.8705 108.69 72.3073 108.788 72.5985C108.918 72.8573 109.049 73.0676 109.179 73.2294C109.31 73.3588 109.424 73.4882 109.522 73.6176C109.652 73.7471 109.717 73.9574 109.717 74.2486H107.125C106.929 74.2486 106.75 74.1677 106.587 74.0059C106.424 73.8441 106.342 73.6662 106.342 73.472C106.342 73.6662 106.261 73.8441 106.098 74.0059C105.968 74.1677 105.788 74.2486 105.56 74.2486H103.017C103.017 73.9574 103.066 73.7471 103.163 73.6176C103.294 73.4882 103.424 73.3588 103.555 73.2294C103.685 73.0676 103.799 72.8573 103.897 72.5985C104.027 72.3396 104.093 71.9352 104.093 71.3852V59.5432C103.995 58.5402 103.538 57.8123 102.723 57.3593C103.082 57.1328 103.538 57.0196 104.093 57.0196V43.1393C104.093 42.5893 104.027 42.1848 103.897 41.926C103.799 41.6671 103.685 41.473 103.555 41.3436C103.424 41.1818 103.294 41.0362 103.163 40.9068C103.066 40.7774 103.017 40.5671 103.017 40.2759H105.609C105.804 40.2759 105.984 40.3568 106.147 40.5185C106.31 40.648 106.391 40.8259 106.391 41.0524C106.391 40.5347 106.652 40.2759 107.174 40.2759H111.771C112.815 40.2759 113.793 40.47 114.706 40.8583C115.619 41.2465 116.418 41.7804 117.102 42.4598C117.787 43.1069 118.325 43.8835 118.716 44.7894C119.108 45.6953 119.319 46.6498 119.352 47.6528V50.8074C119.352 52.1663 119.026 53.412 118.374 54.5444C117.722 55.6768 116.841 56.5828 115.733 57.2622C116.841 57.9093 117.722 58.8153 118.374 59.98C119.026 61.1125 119.352 62.3581 119.352 63.717V70.1718C119.352 70.8513 119.352 71.5469 119.352 72.2587C119.385 72.9382 119.466 73.5691 119.597 74.1515C119.727 74.7015 119.923 75.1707 120.184 75.5589C120.444 75.9472 120.803 76.1899 121.26 76.2869ZM116.809 49.9824C116.776 50.0471 116.76 50.128 116.76 50.225V51.3413C116.727 51.4707 116.711 51.6001 116.711 51.7295C116.711 51.8266 116.711 51.9237 116.711 52.0207C116.711 52.0854 116.695 52.134 116.662 52.1663C116.662 52.1987 116.662 52.2472 116.662 52.3119V52.6031C116.63 52.6678 116.613 52.7487 116.613 52.8458C116.613 52.9105 116.597 52.9752 116.564 53.0399C116.564 53.1046 116.548 53.1531 116.515 53.1855V53.2826L116.467 53.3796C116.467 53.3796 116.499 53.3635 116.564 53.3311V53.2826L116.613 53.234C116.646 53.2017 116.662 53.1855 116.662 53.1855C116.662 53.1531 116.678 53.1208 116.711 53.0884C116.744 53.0237 116.776 52.959 116.809 52.8943C116.841 52.7972 116.874 52.7164 116.907 52.6516C116.939 52.5869 116.956 52.5546 116.956 52.5546C116.956 52.5222 116.972 52.4737 117.004 52.409C117.037 52.3443 117.053 52.2957 117.053 52.2634C117.053 52.1987 117.07 52.134 117.102 52.0693C117.135 52.0045 117.151 51.956 117.151 51.9237C117.151 51.8913 117.168 51.8428 117.2 51.7781C117.2 51.7134 117.2 51.6648 117.2 51.6325C117.233 51.5678 117.249 51.503 117.249 51.4383C117.282 51.3089 117.298 51.1795 117.298 51.0501C117.331 50.9207 117.363 50.7912 117.396 50.6618C117.428 50.5647 117.445 50.4192 117.445 50.225C117.445 50.1603 117.445 50.0956 117.445 50.0309C117.477 49.9662 117.494 49.9015 117.494 49.8368V48.1381C117.494 47.944 117.477 47.7984 117.445 47.7013V47.5072C117.445 47.4425 117.428 47.4101 117.396 47.4101C117.396 47.3778 117.396 47.3293 117.396 47.2645C117.396 47.1028 117.363 46.8601 117.298 46.5366C117.265 46.4719 117.249 46.4071 117.249 46.3424C117.249 46.2777 117.233 46.213 117.2 46.1483C117.2 46.1159 117.184 46.0998 117.151 46.0998C117.151 46.0674 117.151 46.0351 117.151 46.0027C117.151 45.9703 117.135 45.9542 117.102 45.9542C117.102 45.9218 117.102 45.8895 117.102 45.8571C117.07 45.7924 117.053 45.7439 117.053 45.7115C117.053 45.6792 117.037 45.6306 117.004 45.5659C116.972 45.5012 116.956 45.4527 116.956 45.4203C116.956 45.388 116.939 45.3394 116.907 45.2747C116.874 45.2424 116.858 45.21 116.858 45.1777C116.858 45.1453 116.841 45.1129 116.809 45.0806C116.744 44.9512 116.711 44.8865 116.711 44.8865C116.678 44.8541 116.662 44.8379 116.662 44.8379C116.662 44.8056 116.646 44.7732 116.613 44.7409C116.581 44.7085 116.564 44.6762 116.564 44.6438C116.532 44.6114 116.515 44.5791 116.515 44.5467H116.467C116.467 44.5467 116.483 44.5791 116.515 44.6438V44.7409C116.548 44.7732 116.564 44.8379 116.564 44.935C116.564 44.9673 116.564 44.9997 116.564 45.0321C116.597 45.0321 116.613 45.0644 116.613 45.1291C116.613 45.2262 116.63 45.3071 116.662 45.3718V45.6144C116.662 45.6792 116.662 45.7277 116.662 45.76C116.695 45.7924 116.711 45.8409 116.711 45.9056C116.711 46.1968 116.727 46.4233 116.76 46.5851V47.3616C116.793 47.5234 116.809 47.7822 116.809 48.1381V49.9824ZM106.734 54.9812C106.734 54.8194 106.717 54.6415 106.685 54.4473C106.685 54.2532 106.685 54.0591 106.685 53.865V52.7972C106.652 52.0854 106.636 51.406 106.636 50.7589C106.636 50.1118 106.62 49.497 106.587 48.9146C106.554 48.6558 106.538 48.397 106.538 48.1381C106.538 47.8793 106.522 47.6366 106.489 47.4101C106.489 47.1513 106.473 46.9248 106.44 46.7307C106.44 46.5366 106.44 46.3586 106.44 46.1968C106.44 46.0351 106.424 45.8895 106.391 45.76C106.391 45.6306 106.391 45.5174 106.391 45.4203V45.1777C106.359 45.1777 106.342 45.1938 106.342 45.2262V45.4203C106.342 45.5174 106.326 45.6306 106.294 45.76C106.294 45.8895 106.294 46.0351 106.294 46.1968C106.294 46.3586 106.277 46.5366 106.245 46.7307C106.245 46.9248 106.245 47.1513 106.245 47.4101C106.212 47.6366 106.196 47.8793 106.196 48.1381C106.196 48.397 106.179 48.6558 106.147 48.9146C106.114 49.497 106.098 50.1118 106.098 50.7589C106.098 51.406 106.082 52.0854 106.049 52.7972V53.865C106.049 54.0591 106.033 54.2532 106 54.4473C106 54.6415 106 54.8194 106 54.9812V59.4947C106 59.7536 106.016 59.9477 106.049 60.0771V61.6787C106.049 62.0346 106.049 62.3905 106.049 62.7464C106.082 63.0699 106.098 63.3935 106.098 63.717C106.098 64.0729 106.098 64.3965 106.098 64.6877C106.131 64.9789 106.147 65.2701 106.147 65.5613C106.179 65.8525 106.196 66.1275 106.196 66.3863C106.196 66.6128 106.212 66.8555 106.245 67.1143C106.245 67.3408 106.245 67.5511 106.245 67.7452C106.277 67.9394 106.294 68.1173 106.294 68.2791C106.294 68.4409 106.294 68.6026 106.294 68.7644C106.326 68.8938 106.342 68.9909 106.342 69.0556V69.2983C106.342 69.3306 106.359 69.3468 106.391 69.3468V69.0556C106.391 68.9909 106.391 68.8938 106.391 68.7644C106.424 68.6026 106.44 68.4409 106.44 68.2791C106.44 68.1173 106.44 67.9394 106.44 67.7452C106.473 67.5511 106.489 67.3408 106.489 67.1143C106.522 66.8555 106.538 66.6128 106.538 66.3863C106.538 66.1275 106.554 65.8525 106.587 65.5613C106.587 65.2701 106.587 64.9789 106.587 64.6877C106.62 64.3965 106.636 64.0729 106.636 63.717C106.636 63.3935 106.636 63.0699 106.636 62.7464C106.669 62.3905 106.685 62.0346 106.685 61.6787V60.611C106.685 60.3521 106.701 60.1742 106.734 60.0771V54.9812ZM114.804 47.8469C114.804 47.4263 114.787 46.9086 114.755 46.2939C114.722 45.6792 114.608 45.0968 114.412 44.5467C114.217 43.9967 113.907 43.5276 113.483 43.1393C113.092 42.7187 112.505 42.5084 111.722 42.5084H109.962C109.603 42.5407 109.293 42.6863 109.032 42.9452C108.772 43.204 108.641 43.5114 108.641 43.8673V54.7871C108.641 55.143 108.772 55.4503 109.032 55.7092C109.293 55.968 109.603 56.0974 109.962 56.0974H111.722C112.505 56.0974 113.092 55.9033 113.483 55.5151C113.907 55.1268 114.217 54.6576 114.412 54.1076C114.608 53.5252 114.722 52.9428 114.755 52.3604C114.787 51.7457 114.804 51.228 114.804 50.8074V47.8469ZM118.08 74.4427C118.08 74.4427 118.064 74.4265 118.032 74.3942L117.983 74.3456C117.95 74.2809 117.917 74.2162 117.885 74.1515C117.885 74.0868 117.852 74.0221 117.787 73.9574C117.754 73.8603 117.722 73.7632 117.689 73.6662C117.657 73.5368 117.624 73.3912 117.591 73.2294C117.526 72.9058 117.494 72.5985 117.494 72.3073C117.461 72.1455 117.445 71.9837 117.445 71.8219C117.445 71.6278 117.445 71.4175 117.445 71.191V68.6188C117.445 68.3923 117.445 68.1658 117.445 67.9394C117.445 67.7129 117.461 67.4702 117.494 67.2114C117.494 66.9849 117.494 66.7584 117.494 66.5319C117.494 66.3054 117.477 66.0789 117.445 65.8525V65.173C117.445 64.8495 117.428 64.623 117.396 64.4936C117.396 64.2671 117.379 64.0568 117.347 63.8626C117.347 63.6361 117.331 63.4258 117.298 63.2317C117.233 62.7787 117.168 62.3905 117.102 62.0669C117.07 61.9052 117.037 61.7596 117.004 61.6301C116.972 61.4684 116.923 61.3066 116.858 61.1448C116.793 60.983 116.744 60.8536 116.711 60.7566C116.678 60.6595 116.63 60.5624 116.564 60.4654C116.499 60.3683 116.45 60.2874 116.418 60.2227C116.385 60.158 116.352 60.0933 116.32 60.0286C116.287 60.0286 116.255 60.0124 116.222 59.98C116.189 59.98 116.173 59.9639 116.173 59.9315L116.222 59.98C116.222 60.0124 116.238 60.0447 116.271 60.0771C116.271 60.1095 116.271 60.1418 116.271 60.1742C116.303 60.1742 116.32 60.2065 116.32 60.2712C116.352 60.3036 116.369 60.3359 116.369 60.3683C116.369 60.4007 116.385 60.4492 116.418 60.5139C116.45 60.6433 116.499 60.8698 116.564 61.1933C116.597 61.3551 116.613 61.5169 116.613 61.6787C116.646 61.8404 116.678 62.0022 116.711 62.164C116.711 62.3258 116.711 62.5037 116.711 62.6979C116.744 62.8596 116.76 63.0538 116.76 63.2802V69.2983C116.76 69.4277 116.76 69.5409 116.76 69.638C116.793 69.7351 116.809 69.8483 116.809 69.9777C116.809 70.2042 116.809 70.4307 116.809 70.6572C116.841 70.8513 116.874 71.0454 116.907 71.2396C116.939 71.4337 116.956 71.6278 116.956 71.8219C116.988 72.0161 117.021 72.194 117.053 72.3558C117.119 72.5499 117.168 72.7279 117.2 72.8897C117.233 73.0191 117.282 73.1647 117.347 73.3265C117.412 73.4882 117.461 73.6176 117.494 73.7147C117.526 73.8118 117.575 73.9088 117.64 74.0059L117.738 74.103C117.771 74.1353 117.787 74.1677 117.787 74.2C117.787 74.2 117.803 74.2162 117.836 74.2486L118.032 74.4427H118.08Z" fill="#F4EDE8"/>
<path d="M135.924 50.8074C135.924 52.1663 135.598 53.412 134.946 54.5444C134.294 55.6768 133.414 56.5828 132.305 57.2622C133.414 57.9093 134.294 58.8153 134.946 59.98C135.598 61.1125 135.924 62.3581 135.924 63.717V66.8716C135.892 67.907 135.68 68.8776 135.289 69.7836C134.897 70.6572 134.359 71.4337 133.675 72.1131C132.99 72.7602 132.191 73.2779 131.278 73.6662C130.365 74.0544 129.387 74.2486 128.344 74.2486H123.697C123.502 74.2486 123.322 74.1677 123.159 74.0059C122.996 73.8441 122.915 73.6662 122.915 73.472C122.915 73.6662 122.833 73.8441 122.67 74.0059C122.54 74.1677 122.36 74.2486 122.132 74.2486H119.589C119.589 73.9574 119.638 73.7471 119.736 73.6176C119.866 73.4882 119.997 73.3588 120.127 73.2294C120.257 73.0676 120.372 72.8573 120.469 72.5985C120.6 72.3396 120.665 71.9352 120.665 71.3852V59.5432C120.567 58.5402 120.111 57.8123 119.296 57.3593C119.654 57.1328 120.111 57.0196 120.665 57.0196V43.1393C120.665 42.5893 120.6 42.1848 120.469 41.926C120.372 41.6671 120.257 41.473 120.127 41.3436C119.997 41.1818 119.866 41.0362 119.736 40.9068C119.638 40.7774 119.589 40.5671 119.589 40.2759H122.181C122.377 40.2759 122.556 40.3568 122.719 40.5185C122.882 40.648 122.964 40.8259 122.964 41.0524C122.964 40.5347 123.225 40.2759 123.746 40.2759H128.344C129.387 40.2759 130.365 40.47 131.278 40.8583C132.191 41.2465 132.99 41.7804 133.675 42.4598C134.359 43.1069 134.897 43.8835 135.289 44.7894C135.68 45.6953 135.892 46.6498 135.924 47.6528V50.8074ZM123.306 54.9812C123.306 54.8194 123.29 54.6415 123.257 54.4473C123.257 54.2532 123.257 54.0591 123.257 53.865V52.7972C123.225 52.0854 123.208 51.406 123.208 50.7589C123.208 50.1118 123.192 49.497 123.159 48.9146C123.127 48.6558 123.11 48.397 123.11 48.1381C123.11 47.8793 123.094 47.6366 123.061 47.4101C123.061 47.1513 123.045 46.9248 123.013 46.7307C123.013 46.5366 123.013 46.3586 123.013 46.1968C123.013 46.0351 122.996 45.8895 122.964 45.76C122.964 45.6306 122.964 45.5174 122.964 45.4203V45.1777C122.931 45.1777 122.915 45.1938 122.915 45.2262V45.4203C122.915 45.5174 122.898 45.6306 122.866 45.76C122.866 45.8895 122.866 46.0351 122.866 46.1968C122.866 46.3586 122.85 46.5366 122.817 46.7307C122.817 46.9248 122.817 47.1513 122.817 47.4101C122.784 47.6366 122.768 47.8793 122.768 48.1381C122.768 48.397 122.752 48.6558 122.719 48.9146C122.687 49.497 122.67 50.1118 122.67 50.7589C122.67 51.406 122.654 52.0854 122.621 52.7972V53.865C122.621 54.0591 122.605 54.2532 122.572 54.4473C122.572 54.6415 122.572 54.8194 122.572 54.9812V59.4947C122.572 59.7536 122.589 59.9477 122.621 60.0771V61.6787C122.621 62.0346 122.621 62.3905 122.621 62.7464C122.654 63.0699 122.67 63.3935 122.67 63.717C122.67 64.0729 122.67 64.3965 122.67 64.6877C122.703 64.9789 122.719 65.2701 122.719 65.5613C122.752 65.8525 122.768 66.1275 122.768 66.3863C122.768 66.6128 122.784 66.8555 122.817 67.1143C122.817 67.3408 122.817 67.5511 122.817 67.7452C122.85 67.9394 122.866 68.1173 122.866 68.2791C122.866 68.4409 122.866 68.6026 122.866 68.7644C122.898 68.8938 122.915 68.9909 122.915 69.0556V69.2983C122.915 69.3306 122.931 69.3468 122.964 69.3468V69.0556C122.964 68.9909 122.964 68.8938 122.964 68.7644C122.996 68.6026 123.013 68.4409 123.013 68.2791C123.013 68.1173 123.013 67.9394 123.013 67.7452C123.045 67.5511 123.061 67.3408 123.061 67.1143C123.094 66.8555 123.11 66.6128 123.11 66.3863C123.11 66.1275 123.127 65.8525 123.159 65.5613C123.159 65.2701 123.159 64.9789 123.159 64.6877C123.192 64.3965 123.208 64.0729 123.208 63.717C123.208 63.3935 123.208 63.0699 123.208 62.7464C123.241 62.3905 123.257 62.0346 123.257 61.6787V60.611C123.257 60.3521 123.273 60.1742 123.306 60.0771V54.9812ZM133.381 66.2407C133.349 66.3054 133.332 66.3863 133.332 66.4834V67.5996C133.3 67.729 133.283 67.8585 133.283 67.9879C133.283 68.0849 133.283 68.182 133.283 68.2791C133.283 68.3438 133.267 68.3923 133.234 68.4247C133.234 68.457 133.234 68.5056 133.234 68.5703V68.8615C133.202 68.9262 133.186 69.0071 133.186 69.1041C133.186 69.1688 133.169 69.2336 133.137 69.2983C133.137 69.363 133.12 69.4115 133.088 69.4439V69.5409L133.039 69.638C133.039 69.638 133.071 69.6218 133.137 69.5895V69.5409L133.186 69.4924C133.218 69.46 133.234 69.4439 133.234 69.4439C133.234 69.4115 133.251 69.3791 133.283 69.3468C133.316 69.2821 133.349 69.2174 133.381 69.1527C133.414 69.0556 133.446 68.9747 133.479 68.91C133.512 68.8453 133.528 68.8129 133.528 68.8129C133.528 68.7806 133.544 68.732 133.577 68.6673C133.609 68.6026 133.626 68.5541 133.626 68.5217C133.626 68.4894 133.642 68.4409 133.675 68.3761C133.707 68.3114 133.723 68.2629 133.723 68.2305C133.723 68.1658 133.74 68.1011 133.772 68.0364C133.772 67.9717 133.772 67.9232 133.772 67.8908C133.805 67.8261 133.821 67.7614 133.821 67.6967C133.854 67.5673 133.87 67.4379 133.87 67.3084C133.903 67.179 133.935 67.0496 133.968 66.9202C134.001 66.8231 134.017 66.6775 134.017 66.4834C134.017 66.4187 134.017 66.354 134.017 66.2893C134.05 66.2245 134.066 66.1598 134.066 66.0951V64.3965C134.066 64.2024 134.05 64.0568 134.017 63.9597V63.7656C134.017 63.7009 134.001 63.6685 133.968 63.6685C133.968 63.6361 133.968 63.6038 133.968 63.5714C133.968 63.4097 133.952 63.2802 133.919 63.1832C133.919 63.0538 133.903 62.9243 133.87 62.7949C133.838 62.7302 133.821 62.6655 133.821 62.6008C133.821 62.5361 133.805 62.4714 133.772 62.4067C133.772 62.3743 133.756 62.3581 133.723 62.3581C133.723 62.3258 133.723 62.2934 133.723 62.2611C133.723 62.2287 133.707 62.2125 133.675 62.2125C133.675 62.1802 133.675 62.1478 133.675 62.1155C133.642 62.0508 133.626 62.0022 133.626 61.9699C133.626 61.9375 133.609 61.889 133.577 61.8243C133.544 61.7596 133.528 61.711 133.528 61.6787C133.528 61.6463 133.512 61.5978 133.479 61.5331C133.446 61.5007 133.43 61.4684 133.43 61.436C133.43 61.4037 133.414 61.3713 133.381 61.3389C133.316 61.2095 133.283 61.1448 133.283 61.1448C133.251 61.1125 133.234 61.0963 133.234 61.0963C133.234 61.0639 133.218 61.0316 133.186 60.9992C133.153 60.9669 133.137 60.9345 133.137 60.9022L133.039 60.8051C133.039 60.8051 133.055 60.8374 133.088 60.9022V60.9992C133.12 61.0316 133.137 61.0963 133.137 61.1933C133.137 61.2257 133.137 61.2581 133.137 61.2904C133.169 61.2904 133.186 61.3228 133.186 61.3875C133.186 61.4845 133.202 61.5654 133.234 61.6301V61.8728C133.234 61.9375 133.234 61.986 133.234 62.0184C133.267 62.0508 133.283 62.0993 133.283 62.164C133.283 62.4552 133.3 62.6817 133.332 62.8435V63.62C133.365 63.7817 133.381 64.0406 133.381 64.3965V66.2407ZM131.376 63.717C131.376 63.2964 131.36 62.7787 131.327 62.164C131.294 61.5493 131.18 60.9669 130.985 60.4168C130.789 59.8668 130.479 59.3976 130.055 59.0094C129.664 58.5888 129.077 58.3785 128.295 58.3785H126.534C126.175 58.4108 125.866 58.5564 125.605 58.8153C125.344 59.0741 125.213 59.3815 125.213 59.7374V70.6572C125.213 71.0131 125.344 71.3204 125.605 71.5793C125.866 71.8381 126.175 71.9675 126.534 71.9675H128.295C129.077 71.9675 129.664 71.7734 130.055 71.3852C130.479 70.9969 130.789 70.5277 130.985 69.9777C131.18 69.3953 131.294 68.8129 131.327 68.2305C131.36 67.6158 131.376 67.0981 131.376 66.6775V63.717ZM131.376 47.8469C131.376 47.4263 131.36 46.9086 131.327 46.2939C131.294 45.6792 131.18 45.0968 130.985 44.5467C130.789 43.9967 130.479 43.5276 130.055 43.1393C129.664 42.7187 129.077 42.5084 128.295 42.5084H126.534C126.175 42.5407 125.866 42.6863 125.605 42.9452C125.344 43.204 125.213 43.5114 125.213 43.8673V54.7871C125.213 55.143 125.344 55.4503 125.605 55.7092C125.866 55.968 126.175 56.0974 126.534 56.0974H128.295C129.077 56.0974 129.664 55.9033 130.055 55.5151C130.479 55.1268 130.789 54.6576 130.985 54.1076C131.18 53.5252 131.294 52.9428 131.327 52.3604C131.36 51.7457 131.376 51.228 131.376 50.8074V47.8469ZM133.479 52.6516C133.512 52.5869 133.528 52.5546 133.528 52.5546C133.528 52.5222 133.544 52.4737 133.577 52.409C133.609 52.3443 133.626 52.2957 133.626 52.2634C133.626 52.1987 133.642 52.134 133.675 52.0693C133.707 52.0045 133.723 51.956 133.723 51.9237C133.723 51.8913 133.74 51.8428 133.772 51.7781C133.772 51.7134 133.772 51.6648 133.772 51.6325C133.805 51.5678 133.821 51.503 133.821 51.4383C133.854 51.3089 133.87 51.1795 133.87 51.0501C133.903 50.9207 133.935 50.7912 133.968 50.6618C134.001 50.5647 134.017 50.4192 134.017 50.225C134.017 50.1603 134.017 50.0956 134.017 50.0309C134.05 49.9662 134.066 49.9015 134.066 49.8368V48.1381C134.066 47.944 134.05 47.7984 134.017 47.7013V47.5072C134.017 47.4425 134.001 47.4101 133.968 47.4101C133.968 47.3778 133.968 47.3293 133.968 47.2645C133.968 47.1028 133.935 46.8601 133.87 46.5366C133.838 46.4719 133.821 46.4071 133.821 46.3424C133.821 46.2777 133.805 46.213 133.772 46.1483C133.772 46.1159 133.756 46.0998 133.723 46.0998C133.723 46.0674 133.723 46.0351 133.723 46.0027C133.723 45.9703 133.707 45.9542 133.675 45.9542C133.675 45.9218 133.675 45.8895 133.675 45.8571C133.642 45.7924 133.626 45.7439 133.626 45.7115C133.626 45.6792 133.609 45.6306 133.577 45.5659C133.544 45.5012 133.528 45.4527 133.528 45.4203C133.528 45.388 133.512 45.3394 133.479 45.2747C133.446 45.2424 133.43 45.21 133.43 45.1777C133.43 45.1453 133.414 45.1129 133.381 45.0806C133.316 44.9512 133.283 44.8865 133.283 44.8865C133.251 44.8541 133.234 44.8379 133.234 44.8379C133.234 44.8056 133.218 44.7732 133.186 44.7409C133.153 44.7085 133.137 44.6762 133.137 44.6438C133.104 44.6114 133.088 44.5791 133.088 44.5467H133.039C133.039 44.5467 133.055 44.5791 133.088 44.6438V44.7409C133.12 44.7732 133.137 44.8379 133.137 44.935C133.137 44.9673 133.137 44.9997 133.137 45.0321C133.169 45.0321 133.186 45.0644 133.186 45.1291C133.186 45.2262 133.202 45.3071 133.234 45.3718V45.6144C133.234 45.6792 133.234 45.7277 133.234 45.76C133.267 45.7924 133.283 45.8409 133.283 45.9056C133.283 46.1968 133.3 46.4233 133.332 46.5851V47.3616C133.365 47.5234 133.381 47.7822 133.381 48.1381V49.9824C133.349 50.0471 133.332 50.128 133.332 50.225V51.3413C133.3 51.4707 133.283 51.6001 133.283 51.7295C133.283 51.8266 133.283 51.9237 133.283 52.0207C133.283 52.0854 133.267 52.134 133.234 52.1663C133.234 52.1987 133.234 52.2472 133.234 52.3119V52.6031C133.202 52.6678 133.186 52.7487 133.186 52.8458C133.186 52.9105 133.169 52.9752 133.137 53.0399C133.137 53.1046 133.12 53.1531 133.088 53.1855V53.2826L133.039 53.3796C133.039 53.3796 133.071 53.3635 133.137 53.3311V53.2826L133.186 53.234C133.218 53.2017 133.234 53.1855 133.234 53.1855C133.234 53.1531 133.251 53.1208 133.283 53.0884C133.316 53.0237 133.349 52.959 133.381 52.8943C133.414 52.7972 133.446 52.7164 133.479 52.6516Z" fill="#F4EDE8"/>
<path d="M152.594 71.2881C152.594 71.8705 152.643 72.3073 152.741 72.5985C152.872 72.8573 153.002 73.0676 153.132 73.2294C153.263 73.3588 153.377 73.4882 153.475 73.6176C153.605 73.7471 153.67 73.9574 153.67 74.2486H140.367C140.172 74.2486 139.992 74.1677 139.829 74.0059C139.666 73.8441 139.585 73.6662 139.585 73.472C139.585 73.6662 139.503 73.8441 139.34 74.0059C139.21 74.1677 139.031 74.2486 138.802 74.2486H136.259C136.259 73.9574 136.308 73.7471 136.406 73.6176C136.536 73.4882 136.667 73.3588 136.797 73.2294C136.927 73.0676 137.042 72.8573 137.139 72.5985C137.27 72.3396 137.335 71.9352 137.335 71.3852V59.5432C137.237 58.5402 136.781 57.8123 135.966 57.3593C136.324 57.1328 136.781 57.0196 137.335 57.0196V43.1393C137.335 42.5893 137.27 42.1848 137.139 41.926C137.042 41.6671 136.927 41.473 136.797 41.3436C136.667 41.1818 136.536 41.0362 136.406 40.9068C136.308 40.7774 136.259 40.5671 136.259 40.2759H138.851C139.047 40.2759 139.226 40.3568 139.389 40.5185C139.552 40.648 139.634 40.8259 139.634 41.0524C139.634 40.5347 139.895 40.2759 140.416 40.2759H153.67C153.67 40.5671 153.605 40.7774 153.475 40.9068C153.377 41.0362 153.263 41.1818 153.132 41.3436C153.002 41.473 152.872 41.6833 152.741 41.9745C152.643 42.2334 152.594 42.654 152.594 43.2364V49.6912C151.453 49.6912 150.573 49.4809 149.953 49.0602C149.367 48.6073 148.926 48.1058 148.633 47.5557C148.274 46.941 148.079 46.213 148.046 45.3718V43.8673C148.046 43.5114 147.916 43.204 147.655 42.9452C147.394 42.6863 147.084 42.5407 146.725 42.5084H143.204C142.845 42.5407 142.536 42.6863 142.275 42.9452C142.014 43.204 141.884 43.5114 141.884 43.8673V54.7871C141.884 55.143 142.014 55.4503 142.275 55.7092C142.536 55.968 142.845 56.0974 143.204 56.0974H143.546C143.905 56.0974 144.199 55.968 144.427 55.7092C144.688 55.4503 144.818 55.143 144.818 54.7871V54.7385C144.851 54.2532 144.981 53.8326 145.209 53.4767C145.405 53.1531 145.698 52.862 146.09 52.6031C146.481 52.3443 147.052 52.2149 147.801 52.2149V62.2611C147.052 62.2611 146.481 62.1316 146.09 61.8728C145.698 61.614 145.405 61.3228 145.209 60.9992C144.981 60.6433 144.851 60.2227 144.818 59.7374C144.818 59.3815 144.688 59.0741 144.427 58.8153C144.199 58.5564 143.905 58.4108 143.546 58.3785H143.204C142.845 58.4108 142.536 58.5564 142.275 58.8153C142.014 59.0741 141.884 59.3815 141.884 59.7374V70.6572C141.884 71.0131 142.014 71.3204 142.275 71.5793C142.536 71.8381 142.845 71.9675 143.204 71.9675H146.725C147.084 71.9675 147.394 71.8381 147.655 71.5793C147.916 71.3204 148.046 71.0131 148.046 70.6572V69.1041C148.079 68.2953 148.274 67.5834 148.633 66.9687C148.926 66.4187 149.367 65.9172 149.953 65.4642C150.573 65.0112 151.453 64.7847 152.594 64.7847V71.2881ZM139.976 54.9812C139.976 54.8194 139.96 54.6415 139.927 54.4473C139.927 54.2532 139.927 54.0591 139.927 53.865V52.7972C139.895 52.0854 139.878 51.406 139.878 50.7589C139.878 50.1118 139.862 49.497 139.829 48.9146C139.797 48.6558 139.78 48.397 139.78 48.1381C139.78 47.8793 139.764 47.6366 139.732 47.4101C139.732 47.1513 139.715 46.9248 139.683 46.7307C139.683 46.5366 139.683 46.3586 139.683 46.1968C139.683 46.0351 139.666 45.8895 139.634 45.76C139.634 45.6306 139.634 45.5174 139.634 45.4203V45.1777C139.601 45.1777 139.585 45.1938 139.585 45.2262V45.4203C139.585 45.5174 139.569 45.6306 139.536 45.76C139.536 45.8895 139.536 46.0351 139.536 46.1968C139.536 46.3586 139.52 46.5366 139.487 46.7307C139.487 46.9248 139.487 47.1513 139.487 47.4101C139.454 47.6366 139.438 47.8793 139.438 48.1381C139.438 48.397 139.422 48.6558 139.389 48.9146C139.357 49.497 139.34 50.1118 139.34 50.7589C139.34 51.406 139.324 52.0854 139.291 52.7972V53.865C139.291 54.0591 139.275 54.2532 139.242 54.4473C139.242 54.6415 139.242 54.8194 139.242 54.9812V59.4947C139.242 59.7536 139.259 59.9477 139.291 60.0771V61.6787C139.291 62.0346 139.291 62.3905 139.291 62.7464C139.324 63.0699 139.34 63.3935 139.34 63.717C139.34 64.0729 139.34 64.3965 139.34 64.6877C139.373 64.9789 139.389 65.2701 139.389 65.5613C139.422 65.8525 139.438 66.1275 139.438 66.3863C139.438 66.6128 139.454 66.8555 139.487 67.1143C139.487 67.3408 139.487 67.5511 139.487 67.7452C139.52 67.9394 139.536 68.1173 139.536 68.2791C139.536 68.4409 139.536 68.6026 139.536 68.7644C139.569 68.8938 139.585 68.9909 139.585 69.0556V69.2983C139.585 69.3306 139.601 69.3468 139.634 69.3468V69.0556C139.634 68.9909 139.634 68.8938 139.634 68.7644C139.666 68.6026 139.683 68.4409 139.683 68.2791C139.683 68.1173 139.683 67.9394 139.683 67.7452C139.715 67.5511 139.732 67.3408 139.732 67.1143C139.764 66.8555 139.78 66.6128 139.78 66.3863C139.78 66.1275 139.797 65.8525 139.829 65.5613C139.829 65.2701 139.829 64.9789 139.829 64.6877C139.862 64.3965 139.878 64.0729 139.878 63.717C139.878 63.3935 139.878 63.0699 139.878 62.7464C139.911 62.3905 139.927 62.0346 139.927 61.6787V60.611C139.927 60.3521 139.944 60.1742 139.976 60.0771V54.9812Z" fill="#F4EDE8"/>
<path d="M172.269 76.2869C172.628 76.3516 172.873 76.4649 173.003 76.6267C173.166 76.7884 173.28 76.9502 173.345 77.112C173.411 77.3061 173.443 77.5164 173.443 77.7429C172.4 77.7429 171.422 77.6135 170.509 77.3546C169.596 77.0958 168.781 76.6752 168.063 76.0928C167.379 75.5104 166.824 74.7501 166.4 73.8118C166.009 72.8735 165.813 71.7249 165.813 70.366V63.717C165.813 63.2964 165.797 62.7787 165.765 62.164C165.732 61.5493 165.618 60.9669 165.422 60.4168C165.227 59.8668 164.917 59.3976 164.493 59.0094C164.102 58.5888 163.515 58.3785 162.732 58.3785H160.727C160.434 58.4432 160.173 58.605 159.944 58.8638C159.749 59.0903 159.651 59.3653 159.651 59.6888V71.2881C159.651 71.8705 159.7 72.3073 159.798 72.5985C159.928 72.8573 160.059 73.0676 160.189 73.2294C160.319 73.3588 160.434 73.4882 160.531 73.6176C160.662 73.7471 160.727 73.9574 160.727 74.2486H158.135C157.939 74.2486 157.76 74.1677 157.597 74.0059C157.434 73.8441 157.352 73.6662 157.352 73.472C157.352 73.6662 157.271 73.8441 157.108 74.0059C156.977 74.1677 156.798 74.2486 156.57 74.2486H154.027C154.027 73.9574 154.075 73.7471 154.173 73.6176C154.304 73.4882 154.434 73.3588 154.565 73.2294C154.695 73.0676 154.809 72.8573 154.907 72.5985C155.037 72.3396 155.103 71.9352 155.103 71.3852V59.5432C155.005 58.5402 154.548 57.8123 153.733 57.3593C154.092 57.1328 154.548 57.0196 155.103 57.0196V43.1393C155.103 42.5893 155.037 42.1848 154.907 41.926C154.809 41.6671 154.695 41.473 154.565 41.3436C154.434 41.1818 154.304 41.0362 154.173 40.9068C154.075 40.7774 154.027 40.5671 154.027 40.2759H156.619C156.814 40.2759 156.994 40.3568 157.157 40.5185C157.32 40.648 157.401 40.8259 157.401 41.0524C157.401 40.5347 157.662 40.2759 158.184 40.2759H162.781C163.825 40.2759 164.803 40.47 165.716 40.8583C166.629 41.2465 167.427 41.7804 168.112 42.4598C168.797 43.1069 169.335 43.8835 169.726 44.7894C170.117 45.6953 170.329 46.6498 170.362 47.6528V50.8074C170.362 52.1663 170.036 53.412 169.384 54.5444C168.732 55.6768 167.851 56.5828 166.743 57.2622C167.851 57.9093 168.732 58.8153 169.384 59.98C170.036 61.1125 170.362 62.3581 170.362 63.717V70.1718C170.362 70.8513 170.362 71.5469 170.362 72.2587C170.395 72.9382 170.476 73.5691 170.606 74.1515C170.737 74.7015 170.933 75.1707 171.193 75.5589C171.454 75.9472 171.813 76.1899 172.269 76.2869ZM167.819 49.9824C167.786 50.0471 167.77 50.128 167.77 50.225V51.3413C167.737 51.4707 167.721 51.6001 167.721 51.7295C167.721 51.8266 167.721 51.9237 167.721 52.0207C167.721 52.0854 167.705 52.134 167.672 52.1663C167.672 52.1987 167.672 52.2472 167.672 52.3119V52.6031C167.639 52.6678 167.623 52.7487 167.623 52.8458C167.623 52.9105 167.607 52.9752 167.574 53.0399C167.574 53.1046 167.558 53.1531 167.525 53.1855V53.2826L167.476 53.3796C167.476 53.3796 167.509 53.3635 167.574 53.3311V53.2826L167.623 53.234C167.656 53.2017 167.672 53.1855 167.672 53.1855C167.672 53.1531 167.688 53.1208 167.721 53.0884C167.753 53.0237 167.786 52.959 167.819 52.8943C167.851 52.7972 167.884 52.7164 167.917 52.6516C167.949 52.5869 167.965 52.5546 167.965 52.5546C167.965 52.5222 167.982 52.4737 168.014 52.409C168.047 52.3443 168.063 52.2957 168.063 52.2634C168.063 52.1987 168.08 52.134 168.112 52.0693C168.145 52.0045 168.161 51.956 168.161 51.9237C168.161 51.8913 168.177 51.8428 168.21 51.7781C168.21 51.7134 168.21 51.6648 168.21 51.6325C168.243 51.5678 168.259 51.503 168.259 51.4383C168.291 51.3089 168.308 51.1795 168.308 51.0501C168.34 50.9207 168.373 50.7912 168.406 50.6618C168.438 50.5647 168.455 50.4192 168.455 50.225C168.455 50.1603 168.455 50.0956 168.455 50.0309C168.487 49.9662 168.503 49.9015 168.503 49.8368V48.1381C168.503 47.944 168.487 47.7984 168.455 47.7013V47.5072C168.455 47.4425 168.438 47.4101 168.406 47.4101C168.406 47.3778 168.406 47.3293 168.406 47.2645C168.406 47.1028 168.373 46.8601 168.308 46.5366C168.275 46.4719 168.259 46.4071 168.259 46.3424C168.259 46.2777 168.243 46.213 168.21 46.1483C168.21 46.1159 168.194 46.0998 168.161 46.0998C168.161 46.0674 168.161 46.0351 168.161 46.0027C168.161 45.9703 168.145 45.9542 168.112 45.9542C168.112 45.9218 168.112 45.8895 168.112 45.8571C168.08 45.7924 168.063 45.7439 168.063 45.7115C168.063 45.6792 168.047 45.6306 168.014 45.5659C167.982 45.5012 167.965 45.4527 167.965 45.4203C167.965 45.388 167.949 45.3394 167.917 45.2747C167.884 45.2424 167.868 45.21 167.868 45.1777C167.868 45.1453 167.851 45.1129 167.819 45.0806C167.753 44.9512 167.721 44.8865 167.721 44.8865C167.688 44.8541 167.672 44.8379 167.672 44.8379C167.672 44.8056 167.656 44.7732 167.623 44.7409C167.59 44.7085 167.574 44.6762 167.574 44.6438C167.542 44.6114 167.525 44.5791 167.525 44.5467H167.476C167.476 44.5467 167.493 44.5791 167.525 44.6438V44.7409C167.558 44.7732 167.574 44.8379 167.574 44.935C167.574 44.9673 167.574 44.9997 167.574 45.0321C167.607 45.0321 167.623 45.0644 167.623 45.1291C167.623 45.2262 167.639 45.3071 167.672 45.3718V45.6144C167.672 45.6792 167.672 45.7277 167.672 45.76C167.705 45.7924 167.721 45.8409 167.721 45.9056C167.721 46.1968 167.737 46.4233 167.77 46.5851V47.3616C167.802 47.5234 167.819 47.7822 167.819 48.1381V49.9824ZM157.744 54.9812C157.744 54.8194 157.727 54.6415 157.695 54.4473C157.695 54.2532 157.695 54.0591 157.695 53.865V52.7972C157.662 52.0854 157.646 51.406 157.646 50.7589C157.646 50.1118 157.629 49.497 157.597 48.9146C157.564 48.6558 157.548 48.397 157.548 48.1381C157.548 47.8793 157.532 47.6366 157.499 47.4101C157.499 47.1513 157.483 46.9248 157.45 46.7307C157.45 46.5366 157.45 46.3586 157.45 46.1968C157.45 46.0351 157.434 45.8895 157.401 45.76C157.401 45.6306 157.401 45.5174 157.401 45.4203V45.1777C157.369 45.1777 157.352 45.1938 157.352 45.2262V45.4203C157.352 45.5174 157.336 45.6306 157.303 45.76C157.303 45.8895 157.303 46.0351 157.303 46.1968C157.303 46.3586 157.287 46.5366 157.255 46.7307C157.255 46.9248 157.255 47.1513 157.255 47.4101C157.222 47.6366 157.206 47.8793 157.206 48.1381C157.206 48.397 157.189 48.6558 157.157 48.9146C157.124 49.497 157.108 50.1118 157.108 50.7589C157.108 51.406 157.091 52.0854 157.059 52.7972V53.865C157.059 54.0591 157.043 54.2532 157.01 54.4473C157.01 54.6415 157.01 54.8194 157.01 54.9812V59.4947C157.01 59.7536 157.026 59.9477 157.059 60.0771V61.6787C157.059 62.0346 157.059 62.3905 157.059 62.7464C157.091 63.0699 157.108 63.3935 157.108 63.717C157.108 64.0729 157.108 64.3965 157.108 64.6877C157.14 64.9789 157.157 65.2701 157.157 65.5613C157.189 65.8525 157.206 66.1275 157.206 66.3863C157.206 66.6128 157.222 66.8555 157.255 67.1143C157.255 67.3408 157.255 67.5511 157.255 67.7452C157.287 67.9394 157.303 68.1173 157.303 68.2791C157.303 68.4409 157.303 68.6026 157.303 68.7644C157.336 68.8938 157.352 68.9909 157.352 69.0556V69.2983C157.352 69.3306 157.369 69.3468 157.401 69.3468V69.0556C157.401 68.9909 157.401 68.8938 157.401 68.7644C157.434 68.6026 157.45 68.4409 157.45 68.2791C157.45 68.1173 157.45 67.9394 157.45 67.7452C157.483 67.5511 157.499 67.3408 157.499 67.1143C157.532 66.8555 157.548 66.6128 157.548 66.3863C157.548 66.1275 157.564 65.8525 157.597 65.5613C157.597 65.2701 157.597 64.9789 157.597 64.6877C157.629 64.3965 157.646 64.0729 157.646 63.717C157.646 63.3935 157.646 63.0699 157.646 62.7464C157.678 62.3905 157.695 62.0346 157.695 61.6787V60.611C157.695 60.3521 157.711 60.1742 157.744 60.0771V54.9812ZM165.813 47.8469C165.813 47.4263 165.797 46.9086 165.765 46.2939C165.732 45.6792 165.618 45.0968 165.422 44.5467C165.227 43.9967 164.917 43.5276 164.493 43.1393C164.102 42.7187 163.515 42.5084 162.732 42.5084H160.972C160.613 42.5407 160.303 42.6863 160.042 42.9452C159.781 43.204 159.651 43.5114 159.651 43.8673V54.7871C159.651 55.143 159.781 55.4503 160.042 55.7092C160.303 55.968 160.613 56.0974 160.972 56.0974H162.732C163.515 56.0974 164.102 55.9033 164.493 55.5151C164.917 55.1268 165.227 54.6576 165.422 54.1076C165.618 53.5252 165.732 52.9428 165.765 52.3604C165.797 51.7457 165.813 51.228 165.813 50.8074V47.8469ZM169.09 74.4427C169.09 74.4427 169.074 74.4265 169.041 74.3942L168.993 74.3456C168.96 74.2809 168.927 74.2162 168.895 74.1515C168.895 74.0868 168.862 74.0221 168.797 73.9574C168.764 73.8603 168.732 73.7632 168.699 73.6662C168.666 73.5368 168.634 73.3912 168.601 73.2294C168.536 72.9058 168.503 72.5985 168.503 72.3073C168.471 72.1455 168.455 71.9837 168.455 71.8219C168.455 71.6278 168.455 71.4175 168.455 71.191V68.6188C168.455 68.3923 168.455 68.1658 168.455 67.9394C168.455 67.7129 168.471 67.4702 168.503 67.2114C168.503 66.9849 168.503 66.7584 168.503 66.5319C168.503 66.3054 168.487 66.0789 168.455 65.8525V65.173C168.455 64.8495 168.438 64.623 168.406 64.4936C168.406 64.2671 168.389 64.0568 168.357 63.8626C168.357 63.6361 168.34 63.4258 168.308 63.2317C168.243 62.7787 168.177 62.3905 168.112 62.0669C168.08 61.9052 168.047 61.7596 168.014 61.6301C167.982 61.4684 167.933 61.3066 167.868 61.1448C167.802 60.983 167.753 60.8536 167.721 60.7566C167.688 60.6595 167.639 60.5624 167.574 60.4654C167.509 60.3683 167.46 60.2874 167.427 60.2227C167.395 60.158 167.362 60.0933 167.33 60.0286C167.297 60.0286 167.264 60.0124 167.232 59.98C167.199 59.98 167.183 59.9639 167.183 59.9315L167.232 59.98C167.232 60.0124 167.248 60.0447 167.281 60.0771C167.281 60.1095 167.281 60.1418 167.281 60.1742C167.313 60.1742 167.33 60.2065 167.33 60.2712C167.362 60.3036 167.379 60.3359 167.379 60.3683C167.379 60.4007 167.395 60.4492 167.427 60.5139C167.46 60.6433 167.509 60.8698 167.574 61.1933C167.607 61.3551 167.623 61.5169 167.623 61.6787C167.656 61.8404 167.688 62.0022 167.721 62.164C167.721 62.3258 167.721 62.5037 167.721 62.6979C167.753 62.8596 167.77 63.0538 167.77 63.2802V69.2983C167.77 69.4277 167.77 69.5409 167.77 69.638C167.802 69.7351 167.819 69.8483 167.819 69.9777C167.819 70.2042 167.819 70.4307 167.819 70.6572C167.851 70.8513 167.884 71.0454 167.917 71.2396C167.949 71.4337 167.965 71.6278 167.965 71.8219C167.998 72.0161 168.031 72.194 168.063 72.3558C168.128 72.5499 168.177 72.7279 168.21 72.8897C168.243 73.0191 168.291 73.1647 168.357 73.3265C168.422 73.4882 168.471 73.6176 168.503 73.7147C168.536 73.8118 168.585 73.9088 168.65 74.0059L168.748 74.103C168.781 74.1353 168.797 74.1677 168.797 74.2C168.797 74.2 168.813 74.2162 168.846 74.2486L169.041 74.4427H169.09Z" fill="#F4EDE8"/>
<ellipse rx="2.62009" ry="2.59995" transform="matrix(1 0 0 -1 183.406 58.0248)" fill="#999591"/>
<ellipse rx="2.62009" ry="2.59995" transform="matrix(1 0 0 -1 16.5937 58.0248)" fill="#999591"/>
</svg>
